<svg width="80" height="80" viewBox="0 0 80 80" fill="none" xmlns="http://www.w3.org/2000/svg">
<g clip-path="url(#clip0_328_47844)">
<path d="M49.2 29.2998V33.8998H50.7999C51.7 33.8998 52.4 34.5998 52.4 35.3998C52.4 36.1998 51.7 36.9998 50.7999 36.9998H49.2V42.9998H50.7999C51.7 42.9998 52.4 43.6998 52.4 44.4998C52.4 45.2998 51.7 45.9998 50.7999 45.9998H49.2V50.5998H54C54.9 50.5998 55.5999 49.8998 55.5999 49.0998V30.8998C55.5999 30.0998 54.9 29.3998 54 29.3998H49.2V29.2998ZM31.6 29.2998C30.7 29.2998 30 29.9998 30 30.7998V49.0998C30 49.8998 30.7 50.5998 31.6 50.5998H46V29.2998H31.6ZM23.6 44.5998H26.7999V35.4998H23.6V44.5998ZM60.4 35.3998H58.7999V44.4998H60.4V35.3998ZM58.7999 30.8998V32.3998H62C62.9 32.3998 63.5999 33.0998 63.5999 33.8998V38.4998H65.1999C66.0999 38.4998 66.8 39.1998 66.8 39.9998C66.8 40.7998 66.0999 41.4998 65.1999 41.4998H63.5999V46.0998C63.5999 46.8998 62.9 47.5998 62 47.5998H58.7999V49.0998C58.7999 51.5998 56.5999 53.6998 54 53.6998H31.6C29 53.6998 26.7999 51.6998 26.7999 49.0998V47.5998H22C21.1 47.5998 20.4 46.8998 20.4 46.0998V41.4998H10.8C9.89995 41.4998 9.19995 40.7998 9.19995 39.9998C9.19995 39.1998 9.89995 38.4998 10.8 38.4998H20.4V33.8998C20.4 33.0998 21.1 32.3998 22 32.3998H26.7999V30.8998C26.7999 28.3998 29 26.2998 31.6 26.2998H54C56.7 26.2998 58.7999 28.2998 58.7999 30.8998Z" fill="#4E4B66"/>
<circle cx="40" cy="40" r="38.5" stroke="#F56E1E" stroke-width="3"/>
</g>
<defs>
<clipPath id="clip0_328_47844">
<rect width="80" height="80" fill="white"/>
</clipPath>
</defs>
</svg>
