<svg width="80" height="80" viewBox="0 0 80 80" fill="none" xmlns="http://www.w3.org/2000/svg">
<g clip-path="url(#clip0_328_47707)">
<path d="M58.4 46H56.7V30.6H58.4V46ZM50 44.3V32.3H55V44.3H50ZM48.4 59.7C48.4 60.2 48 60.6 47.6 60.6H42.6C42.1 60.6 41.8 60.2 41.8 59.7V58C41.8 57.6 41.5 57.2 41.1 57.2L34.6 56.1C33 55.8 31.8 54.4 31.8 52.7V47.8H48.5V59.7H48.4ZM45.9 64H44.2V62.3H45.9V64ZM25 30.6H33.4V40.1C31.5 40.5 30.1 42.3 30.1 44.3V46H25.1V30.6H25ZM21.6 29.8H23.3V46.9H21.6V29.8ZM45 21.2V22.9C44.1 22.9 43.3 23.7 43.3 24.6V27.2C43.3 28.1 44 28.9 45 28.9V40H40.8V37.4C40.8 36 39.7 34.8 38.3 34.8H35V21.2H45ZM33.3 16.1H46.7V19.5H44.2V17.8H42.5V19.5H40.8V17.8H39.1V19.5H37.4V17.8H35.7V19.5H33.2L33.3 16.1ZM50 27.2H45V24.6H50V27.2ZM48.4 31.5V40.9C47.9 40.5 47.3 40.2 46.7 40.1V28.9H48.4V31.5ZM34.1 41.8H45.8C47.2 41.8 48.3 42.9 48.3 44.4V46H31.6V44.3C31.6 42.9 32.8 41.8 34.1 41.8ZM39.2 40.1H35V36.7H38.3C38.8 36.7 39.1 37.1 39.1 37.6V40.1H39.2ZM59.2 28.9H55.9C55.4 28.9 55.1 29.3 55.1 29.8V30.7H50.1V29C51 29 51.8 28.2 51.8 27.3V24.7C51.8 23.8 51.1 23 50.1 23H46.8V21.3C47.7 21.3 48.5 20.5 48.5 19.6V16.2C48.5 15.3 47.8 14.5 46.8 14.5H33.3C32.4 14.5 31.6 15.3 31.6 16.2V19.6C31.6 20.5 32.3 21.3 33.3 21.3V29H25C25 28.5 24.6 28.1 24.2 28.1H20.9C20.4 28.1 20.1 28.5 20.1 29V47.8C20.1 48.3 20.5 48.7 20.9 48.7H24.2C24.7 48.7 25 48.3 25 47.8H30V52.7C30 55.2 31.8 57.4 34.2 57.8L40 58.8V59.8C40 61.2 41.1 62.4 42.5 62.4V64C42.5 64.9 43.2 65.7 44.2 65.7H45.9C46.8 65.7 47.6 64.9 47.6 64V62.3C49 62.3 50.1 61.2 50.1 59.7V46H55.1V46.9C55.1 47.4 55.5 47.8 55.9 47.8H59.2C59.7 47.8 60 47.4 60 46.9V29.8C60.1 29.3 59.7 28.9 59.2 28.9Z" fill="#4E4B66"/>
<path d="M58.4 46H56.7V30.6H58.4V46ZM50 44.3V32.3H55V44.3H50ZM48.4 59.7C48.4 60.2 48 60.6 47.6 60.6H42.6C42.1 60.6 41.8 60.2 41.8 59.7V58C41.8 57.6 41.5 57.2 41.1 57.2L34.6 56.1C33 55.8 31.8 54.4 31.8 52.7V47.8H48.5V59.7H48.4ZM45.9 64H44.2V62.3H45.9V64ZM25 30.6H33.4V40.1C31.5 40.5 30.1 42.3 30.1 44.3V46H25.1V30.6H25ZM21.6 29.8H23.3V46.9H21.6V29.8ZM45 21.2V22.9C44.1 22.9 43.3 23.7 43.3 24.6V27.2C43.3 28.1 44 28.9 45 28.9V40H40.8V37.4C40.8 36 39.7 34.8 38.3 34.8H35V21.2H45ZM33.3 16.1H46.7V19.5H44.2V17.8H42.5V19.5H40.8V17.8H39.1V19.5H37.4V17.8H35.7V19.5H33.2L33.3 16.1ZM50 27.2H45V24.6H50V27.2ZM48.4 31.5V40.9C47.9 40.5 47.3 40.2 46.7 40.1V28.9H48.4V31.5ZM34.1 41.8H45.8C47.2 41.8 48.3 42.9 48.3 44.4V46H31.6V44.3C31.6 42.9 32.8 41.8 34.1 41.8ZM39.2 40.1H35V36.7H38.3C38.8 36.7 39.1 37.1 39.1 37.6V40.1H39.2ZM59.2 28.9H55.9C55.4 28.9 55.1 29.3 55.1 29.8V30.7H50.1V29C51 29 51.8 28.2 51.8 27.3V24.7C51.8 23.8 51.1 23 50.1 23H46.8V21.3C47.7 21.3 48.5 20.5 48.5 19.6V16.2C48.5 15.3 47.8 14.5 46.8 14.5H33.3C32.4 14.5 31.6 15.3 31.6 16.2V19.6C31.6 20.5 32.3 21.3 33.3 21.3V29H25C25 28.5 24.6 28.1 24.2 28.1H20.9C20.4 28.1 20.1 28.5 20.1 29V47.8C20.1 48.3 20.5 48.7 20.9 48.7H24.2C24.7 48.7 25 48.3 25 47.8H30V52.7C30 55.2 31.8 57.4 34.2 57.8L40 58.8V59.8C40 61.2 41.1 62.4 42.5 62.4V64C42.5 64.9 43.2 65.7 44.2 65.7H45.9C46.8 65.7 47.6 64.9 47.6 64V62.3C49 62.3 50.1 61.2 50.1 59.7V46H55.1V46.9C55.1 47.4 55.5 47.8 55.9 47.8H59.2C59.7 47.8 60 47.4 60 46.9V29.8C60.1 29.3 59.7 28.9 59.2 28.9Z" fill="#4E4B66" stroke="#4E4B66" stroke-width="0.7055" stroke-miterlimit="10"/>
<path d="M40.1 29.8C40.5 29.8 40.8 30.1 40.8 30.5C40.8 30.9 40.5 31.2001 40.1 31.2001C39.7 31.2001 39.4 30.9 39.4 30.5C39.3 30.1 39.7 29.8 40.1 29.8ZM40.1 32.7001C41.3 32.7001 42.3 31.7 42.3 30.5C42.3 29.3 41.3 28.3 40.1 28.3C38.9 28.3 37.9 29.3 37.9 30.5C37.9 31.1 38.1 31.6 38.5 32C38.9 32.5 39.5 32.7001 40.1 32.7001Z" fill="#4E4B66"/>
<path d="M40.1 29.8C40.5 29.8 40.8 30.1 40.8 30.5C40.8 30.9 40.5 31.2001 40.1 31.2001C39.7 31.2001 39.4 30.9 39.4 30.5C39.3 30.1 39.7 29.8 40.1 29.8ZM40.1 32.7001C41.3 32.7001 42.3 31.7 42.3 30.5C42.3 29.3 41.3 28.3 40.1 28.3C38.9 28.3 37.9 29.3 37.9 30.5C37.9 31.1 38.1 31.6 38.5 32C38.9 32.5 39.5 32.7001 40.1 32.7001Z" fill="#4E4B66"/>
<path d="M40.5 24H39.6V24.9H40.5V24Z" fill="#4E4B66"/>
<path d="M40.5 24H39.6V24.9H40.5V24Z" fill="#4E4B66"/>
<circle cx="40" cy="40" r="38.5" stroke="#F56E1E" stroke-width="3"/>
</g>
<defs>
<clipPath id="clip0_328_47707">
<rect width="80" height="80" fill="white"/>
</clipPath>
</defs>
</svg>
