<svg width="16" height="16" viewBox="0 0 16 16" fill="none" xmlns="http://www.w3.org/2000/svg">
<path d="M5.34392 1H1.65608C1.29374 1 1 1.29374 1 1.65608V5.34392C1 5.70626 1.29374 6 1.65608 6H5.34392C5.70626 6 6 5.70626 6 5.34392V1.65608C6 1.29374 5.70626 1 5.34392 1Z" stroke="#6E7191" stroke-width="2"/>
<path d="M14.3439 1H10.6561C10.2937 1 10 1.29374 10 1.65608V5.34392C10 5.70626 10.2937 6 10.6561 6H14.3439C14.7063 6 15 5.70626 15 5.34392V1.65608C15 1.29374 14.7063 1 14.3439 1Z" stroke="#6E7191" stroke-width="2"/>
<path d="M5.34392 10H1.65608C1.29374 10 1 10.2937 1 10.6561V14.3439C1 14.7063 1.29374 15 1.65608 15H5.34392C5.70626 15 6 14.7063 6 14.3439V10.6561C6 10.2937 5.70626 10 5.34392 10Z" stroke="#6E7191" stroke-width="2"/>
<path d="M14.3439 10H10.6561C10.2937 10 10 10.2937 10 10.6561V14.3439C10 14.7063 10.2937 15 10.6561 15H14.3439C14.7063 15 15 14.7063 15 14.3439V10.6561C15 10.2937 14.7063 10 14.3439 10Z" stroke="#6E7191" stroke-width="2"/>
</svg>
