<svg width="16" height="16" viewBox="0 0 16 16" fill="none" xmlns="http://www.w3.org/2000/svg">
<path d="M14.2857 0H1.71429C0.75 0 0 0.785714 0 1.71429V14.2857C0 15.25 0.75 16 1.71429 16H14.2857C15.2143 16 16 15.25 16 14.2857V1.71429C16 0.785714 15.2143 0 14.2857 0ZM14.8571 14.2857C14.8571 14.6071 14.5714 14.8571 14.2857 14.8571H1.71429C1.39286 14.8571 1.14286 14.6071 1.14286 14.2857V1.71429C1.14286 1.42857 1.39286 1.14286 1.71429 1.14286H14.2857C14.5714 1.14286 14.8571 1.42857 14.8571 1.71429V14.2857Z" fill="#6E7191"/>
</svg>
