<svg width="16" height="16" viewBox="0 0 16 16" fill="none" xmlns="http://www.w3.org/2000/svg">
<path d="M14.2857 0H1.71429C0.75 0 0 0.785714 0 1.71429V14.2857C0 15.25 0.75 16 1.71429 16H14.2857C15.2143 16 16 15.25 16 14.2857V1.71429C16 0.785714 15.2143 0 14.2857 0ZM14.2857 1.14286C14.5714 1.14286 14.8571 1.42857 14.8571 1.71429V14.2857C14.8571 14.6071 14.5714 14.8571 14.2857 14.8571H1.71429C1.39286 14.8571 1.14286 14.6071 1.14286 14.2857V1.71429C1.14286 1.42857 1.39286 1.14286 1.71429 1.14286H14.2857ZM13.0357 4.67857L12.75 4.35714C12.5714 4.21429 12.2857 4.21429 12.1429 4.35714L6.28571 10.1429L3.82143 7.67857C3.67857 7.5 3.39286 7.5 3.21429 7.67857L2.92857 7.96429C2.75 8.14286 2.75 8.39286 2.92857 8.57143L6 11.6786C6.14286 11.8214 6.42857 11.8214 6.60714 11.6786L13.0357 5.28571C13.2143 5.10714 13.2143 4.82143 13.0357 4.67857Z" fill="#6E7191"/>
</svg>
