<svg width="24" height="24" viewBox="0 0 24 24" fill="none" xmlns="http://www.w3.org/2000/svg">
<g id="icon / system">
<path id="&#239;&#128;&#141;" d="M13.8873 11.9718L19.6901 6.22535L20.8732 5.04225C21.0423 4.87324 21.0423 4.59155 20.8732 4.3662L19.6338 3.12676C19.4085 2.95775 19.1268 2.95775 18.9577 3.12676L12.0282 10.1127L5.04225 3.12676C4.87324 2.95775 4.59155 2.95775 4.3662 3.12676L3.12676 4.3662C2.95775 4.59155 2.95775 4.87324 3.12676 5.04225L10.1127 11.9718L3.12676 18.9577C2.95775 19.1268 2.95775 19.4085 3.12676 19.6338L4.3662 20.8732C4.59155 21.0423 4.87324 21.0423 5.04225 20.8732L12.0282 13.8873L17.7746 19.6901L18.9577 20.8732C19.1268 21.0423 19.4085 21.0423 19.6338 20.8732L20.8732 19.6338C21.0423 19.4085 21.0423 19.1268 20.8732 18.9577L13.8873 11.9718Z" fill="#F56E1E"/>
</g>
</svg>
