<svg width="80" height="80" viewBox="0 0 80 80" fill="none" xmlns="http://www.w3.org/2000/svg">
<g clip-path="url(#clip0_328_47716)">
<path d="M39.4 54.4C35.5 58.2 29.3 58.2 25.4 54.4C21.5 50.6 21.5 44.5 25.4 40.7" fill="#4E4B66"/>
<path d="M43.1 55.4C43.8 54.7 43.8 53.5 43.1 52.8L26.9 36.9C26.2 36.2 25 36.2 24.3 36.9C23.6 37.6 23.6 38.8 24.3 39.5L40.5 55.4C41.2 56.2 42.4 56.2 43.1 55.4Z" fill="#4E4B66"/>
<path d="M40.6 25.6C44.5 21.8 50.7 21.8 54.6 25.6C58.5 29.4 58.5 35.5 54.6 39.3" fill="#4E4B66"/>
<path d="M36.9 24.6C36.2 25.3 36.2 26.5 36.9 27.2L53.1 43.1C53.8 43.8 55 43.8 55.7 43.1C56.4 42.4 56.4 41.2 55.7 40.5L39.5 24.6C38.8 23.8 37.6 23.8 36.9 24.6Z" fill="#4E4B66"/>
<path d="M35.6 34.6C36.3 33.9 37.5 33.9 38.3 34.6C39 35.3 39 36.5 38.3 37.2L33.8 41.6L31.1 39L35.6 34.6Z" fill="#4E4B66"/>
<path d="M42.9001 41.7C43.6001 41 44.8 41 45.6 41.7C46.3 42.4 46.3 43.6 45.6 44.3L41 48.7L38.3 46.1L42.9001 41.7Z" fill="#4E4B66"/>
<path d="M58.8 18.9C59.5 18.2 60.7 18.2 61.5 18.9C62.2 19.6 62.2 20.8 61.5 21.5L54.9001 28L52.3 25.4L58.8 18.9Z" fill="#4E4B66"/>
<path d="M21.2 61.1C20.5 61.8 19.3 61.8 18.5 61.1C17.7 60.4 17.8 59.2 18.5 58.5L25.1 52L27.7 54.6L21.2 61.1Z" fill="#4E4B66"/>
<circle cx="40" cy="40" r="38.5" stroke="#F56E1E" stroke-width="3"/>
</g>
<defs>
<clipPath id="clip0_328_47716">
<rect width="80" height="80" fill="white"/>
</clipPath>
</defs>
</svg>
