<svg width="28" height="28" viewBox="0 0 28 28" fill="none" xmlns="http://www.w3.org/2000/svg">
<path d="M14.0005 27C17.4482 26.9998 20.7547 25.63 23.1926 23.1919C25.6304 20.7539 27 17.4473 27 13.9996C26.9998 10.5519 25.6301 7.24558 23.1923 4.80775C20.7544 2.36991 17.4481 1.00024 14.0005 1C10.5527 1 7.24609 2.36956 4.80806 4.80743C2.37003 7.24529 1.00024 10.5518 1 13.9996C1 17.4475 2.36969 20.7542 4.80774 23.1923C7.2458 25.6303 10.5525 27 14.0005 27V27Z" stroke="#6E7191" stroke-width="1.25"/>
<mask id="path-2-inside-1_328_47848" fill="white">
<path d="M24.3778 14.8002C24.3778 13.5726 23.2304 13.0548 21.9308 12.7044C21.6477 11.3385 21.0146 10.0695 20.0935 9.0218C20.6951 7.17913 20.3115 6.34606 19.8747 5.9732C19.1542 5.35898 17.8978 5.56702 16.2253 6.56851C15.5077 6.36371 14.7651 6.25975 14.0188 6.2596C13.2767 6.25981 12.5381 6.36255 11.824 6.56491C10.1543 5.56612 8.897 5.35988 8.17921 5.9723C7.74331 6.34426 7.36054 7.17463 7.95675 9.00829C7.04843 10.0382 6.41847 11.2833 6.1267 12.6252C4.92527 13.0494 3.62207 13.6924 3.62207 14.8911C3.62207 15.9926 4.83881 16.7014 6.45092 17.1571C6.51847 17.3372 6.59412 17.5173 6.67427 17.6912C5.90154 19.5591 5.87632 20.8758 6.61033 21.5017C6.90841 21.7325 7.27949 21.8485 7.65595 21.8286C8.40922 21.788 9.14435 21.5823 9.80933 21.2261C11.0755 22.0039 12.5328 22.4148 14.0188 22.4131C15.4918 22.4148 16.9369 22.0113 18.1959 21.2468C18.8681 21.5955 19.6081 21.794 20.3646 21.8286C20.7523 21.8518 21.1355 21.7359 21.4453 21.5017C22.1802 20.8713 22.1532 19.551 21.3742 17.6741C21.4643 17.4669 21.5543 17.2544 21.6327 17.0382C23.2871 16.5204 24.3796 15.7774 24.3796 14.7984M23.2988 14.7984C23.2988 15.0614 22.8485 15.4171 21.9722 15.7611C22.0571 15.291 22.1002 14.8142 22.101 14.3364C22.101 14.1824 22.0956 14.0292 22.0875 13.877C23.2979 14.2724 23.2997 14.6192 23.2997 14.7984M21.1643 16.0367C21.0034 16.0854 20.8332 16.1325 20.6537 16.1781C19.7287 14.5232 18.6369 12.9672 17.3953 11.5345C16.5262 10.5125 15.5899 9.54971 14.5925 8.65255C15.1442 8.18968 15.7245 7.76194 16.3298 7.37187C17.7924 7.85939 19.0648 8.79427 19.967 10.0443C20.8693 11.2944 21.3559 12.7965 21.358 14.3382C21.3577 14.9108 21.2903 15.4815 21.1571 16.0385M14.0422 14.6119L15.0825 16.877C14.7288 16.8878 14.3644 16.8932 13.9891 16.8932C13.6505 16.8932 13.3208 16.8932 12.9984 16.8815L14.0422 14.6119ZM15.594 13.2169L14.0449 10.0143L12.4833 13.2223L10.8288 16.7761C9.91409 16.7086 9.00352 16.5931 8.10085 16.4303C8.99103 14.8579 10.0352 13.3778 11.2179 12.0119C12.0861 10.988 13.0238 10.025 14.0242 9.12988C15.0247 10.025 15.9623 10.988 16.8306 12.0119C17.9934 13.3557 19.0225 14.8095 19.9035 16.3528C19.0228 16.5331 18.1328 16.6645 17.2376 16.7464L15.594 13.2169ZM19.3946 6.53339C19.7198 6.81078 19.7549 7.48714 19.5036 8.41838C18.8151 7.77792 18.0203 7.26227 17.1548 6.89454C18.2103 6.35416 19.0236 6.21367 19.3982 6.53429M15.3743 7.1251C14.9339 7.43401 14.4835 7.78075 14.0233 8.16351C13.5667 7.77985 13.1146 7.43131 12.6724 7.12329C13.1149 7.04054 13.5641 6.99864 14.0143 6.99811C14.4676 6.99881 14.9198 7.04132 15.3653 7.1251M8.65924 6.53429C9.0339 6.21457 9.84355 6.35416 10.8955 6.89454C10.0303 7.25985 9.23528 7.77273 8.54576 8.41028C8.29899 7.48624 8.33411 6.81438 8.65834 6.53699M11.7204 7.37006C12.3277 7.76116 12.9098 8.1901 13.4631 8.65435C12.4657 9.55151 11.5294 10.5143 10.6604 11.5363C9.39518 12.9965 8.28675 14.5855 7.35334 16.2772C7.19663 16.2412 7.04893 16.2033 6.90303 16.1655C6.75019 15.5694 6.67303 14.9563 6.67337 14.3409C6.67539 12.7964 7.16366 11.2917 8.06894 10.0403C8.97422 8.78894 10.2505 7.85436 11.7168 7.36916M4.69921 14.8947C4.69921 14.6498 4.93788 14.285 5.95378 13.8545C5.94387 14.0148 5.93756 14.177 5.93756 14.3409C5.93758 14.8697 5.98946 15.3973 6.09247 15.916C5.17204 15.5837 4.69831 15.2163 4.69831 14.8956M7.08315 20.9478C6.69499 20.6164 6.72291 19.7464 7.12819 18.5576C7.64991 19.4006 8.32142 20.1411 9.10955 20.7425C8.11887 21.1622 7.36235 21.1757 7.09216 20.9442M7.48753 17.6759C7.52356 17.5948 7.56319 17.5119 7.60191 17.43C8.51143 17.6053 9.42952 17.7328 10.3524 17.8119L9.4806 19.6833H11.7168L12.5121 17.9505C13.1614 17.974 13.6829 17.9794 13.99 17.9794C14.516 17.9794 15.0455 17.9677 15.5724 17.9451L16.3703 19.6824H18.6066L17.7249 17.7911C18.6328 17.6994 19.5348 17.5568 20.4267 17.3642C20.4745 17.4651 20.5231 17.566 20.5672 17.666C19.9531 18.8741 19.0169 19.8889 17.862 20.5981C16.7071 21.3073 15.3786 21.6833 14.0233 21.6845C12.6707 21.6827 11.3449 21.3075 10.1918 20.6003C9.0388 19.8932 8.10331 18.8815 7.48843 17.6768M20.9662 20.9442C20.6888 21.1811 19.8774 21.1604 18.9074 20.7641C19.7088 20.1533 20.3898 19.399 20.9158 18.5396C21.3301 19.7347 21.3562 20.611 20.9662 20.9451"/>
</mask>
<path d="M24.3778 14.8002C24.3778 13.5726 23.2304 13.0548 21.9308 12.7044C21.6477 11.3385 21.0146 10.0695 20.0935 9.0218C20.6951 7.17913 20.3115 6.34606 19.8747 5.9732C19.1542 5.35898 17.8978 5.56702 16.2253 6.56851C15.5077 6.36371 14.7651 6.25975 14.0188 6.2596C13.2767 6.25981 12.5381 6.36255 11.824 6.56491C10.1543 5.56612 8.897 5.35988 8.17921 5.9723C7.74331 6.34426 7.36054 7.17463 7.95675 9.00829C7.04843 10.0382 6.41847 11.2833 6.1267 12.6252C4.92527 13.0494 3.62207 13.6924 3.62207 14.8911C3.62207 15.9926 4.83881 16.7014 6.45092 17.1571C6.51847 17.3372 6.59412 17.5173 6.67427 17.6912C5.90154 19.5591 5.87632 20.8758 6.61033 21.5017C6.90841 21.7325 7.27949 21.8485 7.65595 21.8286C8.40922 21.788 9.14435 21.5823 9.80933 21.2261C11.0755 22.0039 12.5328 22.4148 14.0188 22.4131C15.4918 22.4148 16.9369 22.0113 18.1959 21.2468C18.8681 21.5955 19.6081 21.794 20.3646 21.8286C20.7523 21.8518 21.1355 21.7359 21.4453 21.5017C22.1802 20.8713 22.1532 19.551 21.3742 17.6741C21.4643 17.4669 21.5543 17.2544 21.6327 17.0382C23.2871 16.5204 24.3796 15.7774 24.3796 14.7984M23.2988 14.7984C23.2988 15.0614 22.8485 15.4171 21.9722 15.7611C22.0571 15.291 22.1002 14.8142 22.101 14.3364C22.101 14.1824 22.0956 14.0292 22.0875 13.877C23.2979 14.2724 23.2997 14.6192 23.2997 14.7984M21.1643 16.0367C21.0034 16.0854 20.8332 16.1325 20.6537 16.1781C19.7287 14.5232 18.6369 12.9672 17.3953 11.5345C16.5262 10.5125 15.5899 9.54971 14.5925 8.65255C15.1442 8.18968 15.7245 7.76194 16.3298 7.37187C17.7924 7.85939 19.0648 8.79427 19.967 10.0443C20.8693 11.2944 21.3559 12.7965 21.358 14.3382C21.3577 14.9108 21.2903 15.4815 21.1571 16.0385M14.0422 14.6119L15.0825 16.877C14.7288 16.8878 14.3644 16.8932 13.9891 16.8932C13.6505 16.8932 13.3208 16.8932 12.9984 16.8815L14.0422 14.6119ZM15.594 13.2169L14.0449 10.0143L12.4833 13.2223L10.8288 16.7761C9.91409 16.7086 9.00352 16.5931 8.10085 16.4303C8.99103 14.8579 10.0352 13.3778 11.2179 12.0119C12.0861 10.988 13.0238 10.025 14.0242 9.12988C15.0247 10.025 15.9623 10.988 16.8306 12.0119C17.9934 13.3557 19.0225 14.8095 19.9035 16.3528C19.0228 16.5331 18.1328 16.6645 17.2376 16.7464L15.594 13.2169ZM19.3946 6.53339C19.7198 6.81078 19.7549 7.48714 19.5036 8.41838C18.8151 7.77792 18.0203 7.26227 17.1548 6.89454C18.2103 6.35416 19.0236 6.21367 19.3982 6.53429M15.3743 7.1251C14.9339 7.43401 14.4835 7.78075 14.0233 8.16351C13.5667 7.77985 13.1146 7.43131 12.6724 7.12329C13.1149 7.04054 13.5641 6.99864 14.0143 6.99811C14.4676 6.99881 14.9198 7.04132 15.3653 7.1251M8.65924 6.53429C9.0339 6.21457 9.84355 6.35416 10.8955 6.89454C10.0303 7.25985 9.23528 7.77273 8.54576 8.41028C8.29899 7.48624 8.33411 6.81438 8.65834 6.53699M11.7204 7.37006C12.3277 7.76116 12.9098 8.1901 13.4631 8.65435C12.4657 9.55151 11.5294 10.5143 10.6604 11.5363C9.39518 12.9965 8.28675 14.5855 7.35334 16.2772C7.19663 16.2412 7.04893 16.2033 6.90303 16.1655C6.75019 15.5694 6.67303 14.9563 6.67337 14.3409C6.67539 12.7964 7.16366 11.2917 8.06894 10.0403C8.97422 8.78894 10.2505 7.85436 11.7168 7.36916M4.69921 14.8947C4.69921 14.6498 4.93788 14.285 5.95378 13.8545C5.94387 14.0148 5.93756 14.177 5.93756 14.3409C5.93758 14.8697 5.98946 15.3973 6.09247 15.916C5.17204 15.5837 4.69831 15.2163 4.69831 14.8956M7.08315 20.9478C6.69499 20.6164 6.72291 19.7464 7.12819 18.5576C7.64991 19.4006 8.32142 20.1411 9.10955 20.7425C8.11887 21.1622 7.36235 21.1757 7.09216 20.9442M7.48753 17.6759C7.52356 17.5948 7.56319 17.5119 7.60191 17.43C8.51143 17.6053 9.42952 17.7328 10.3524 17.8119L9.4806 19.6833H11.7168L12.5121 17.9505C13.1614 17.974 13.6829 17.9794 13.99 17.9794C14.516 17.9794 15.0455 17.9677 15.5724 17.9451L16.3703 19.6824H18.6066L17.7249 17.7911C18.6328 17.6994 19.5348 17.5568 20.4267 17.3642C20.4745 17.4651 20.5231 17.566 20.5672 17.666C19.9531 18.8741 19.0169 19.8889 17.862 20.5981C16.7071 21.3073 15.3786 21.6833 14.0233 21.6845C12.6707 21.6827 11.3449 21.3075 10.1918 20.6003C9.0388 19.8932 8.10331 18.8815 7.48843 17.6768M20.9662 20.9442C20.6888 21.1811 19.8774 21.1604 18.9074 20.7641C19.7088 20.1533 20.3898 19.399 20.9158 18.5396C21.3301 19.7347 21.3562 20.611 20.9662 20.9451" fill="#6E7191"/>
<path d="M21.9308 12.7044L20.9516 12.9074L21.0764 13.5098L21.6705 13.67L21.9308 12.7044ZM20.0935 9.0218L19.1429 8.71143L18.9659 9.25367L19.3425 9.68207L20.0935 9.0218ZM19.8747 5.9732L20.5239 5.21262L20.5234 5.2122L19.8747 5.9732ZM16.2253 6.56851L15.9509 7.53012L16.3675 7.64899L16.7391 7.42645L16.2253 6.56851ZM14.0188 6.2596L14.019 5.2596L14.0186 5.2596L14.0188 6.2596ZM11.824 6.56491L11.3107 7.4231L11.6812 7.64475L12.0967 7.52702L11.824 6.56491ZM8.17921 5.9723L7.53015 5.21156L7.5301 5.2116L8.17921 5.9723ZM7.95675 9.00829L8.70676 9.66973L9.0842 9.24175L8.90775 8.69908L7.95675 9.00829ZM6.1267 12.6252L6.45963 13.5681L6.9854 13.3825L7.10386 12.8377L6.1267 12.6252ZM6.45092 17.1571L7.38725 16.806L7.20966 16.3324L6.72294 16.1948L6.45092 17.1571ZM6.67427 17.6912L7.59832 18.0734L7.76545 17.6694L7.58237 17.2724L6.67427 17.6912ZM6.61033 21.5017L5.96146 22.2626L5.97944 22.2779L5.99813 22.2924L6.61033 21.5017ZM7.65595 21.8286L7.7087 22.8272L7.70982 22.8272L7.65595 21.8286ZM9.80933 21.2261L10.3327 20.374L9.8434 20.0734L9.33716 20.3446L9.80933 21.2261ZM14.0188 22.4131L14.02 21.4131L14.0177 21.4131L14.0188 22.4131ZM18.1959 21.2468L18.6564 20.3591L18.1574 20.1003L17.6769 20.3921L18.1959 21.2468ZM20.3646 21.8286L20.4243 20.8303L20.4103 20.8297L20.3646 21.8286ZM21.4453 21.5017L22.0483 22.2995L22.073 22.2808L22.0964 22.2607L21.4453 21.5017ZM21.3742 17.6741L20.4571 17.2753L20.2877 17.665L20.4506 18.0574L21.3742 17.6741ZM21.6327 17.0382L21.334 16.0839L20.8613 16.2318L20.6925 16.6974L21.6327 17.0382ZM21.9722 15.7611L20.9881 15.5834L20.6696 17.3469L22.3376 16.692L21.9722 15.7611ZM22.101 14.3364L23.101 14.3379V14.3364H22.101ZM22.0875 13.877L22.398 12.9265L21.0113 12.4735L21.0889 13.9302L22.0875 13.877ZM20.6537 16.1781L19.7808 16.666L20.1556 17.3365L20.9 17.1473L20.6537 16.1781ZM17.3953 11.5345L16.6334 12.1823L16.6396 12.1894L17.3953 11.5345ZM14.5925 8.65255L13.9498 7.88646L13.068 8.62627L13.9238 9.39602L14.5925 8.65255ZM16.3298 7.37187L16.646 6.42318L16.1912 6.27156L15.7882 6.53127L16.3298 7.37187ZM21.358 14.3382L22.358 14.3387L22.358 14.3368L21.358 14.3382ZM14.0422 14.6119L14.951 14.1946L14.0429 12.2173L13.1337 14.1941L14.0422 14.6119ZM15.0825 16.877L15.113 17.8765L16.6207 17.8305L15.9912 16.4597L15.0825 16.877ZM12.9984 16.8815L12.0899 16.4637L11.4631 17.8264L12.9621 17.8809L12.9984 16.8815ZM15.594 13.2169L16.5005 12.7947L16.4974 12.7881L16.4942 12.7815L15.594 13.2169ZM14.0449 10.0143L14.9452 9.57886L14.0478 7.72367L13.1458 9.57659L14.0449 10.0143ZM12.4833 13.2223L11.5841 12.7846L11.5804 12.7924L11.5767 12.8002L12.4833 13.2223ZM10.8288 16.7761L10.7552 17.7734L11.4439 17.8243L11.7354 17.1982L10.8288 16.7761ZM8.10085 16.4303L7.23063 15.9376L6.53623 17.1642L7.92334 17.4144L8.10085 16.4303ZM11.2179 12.0119L11.9739 12.6665L11.9806 12.6586L11.2179 12.0119ZM14.0242 9.12988L14.691 8.38465L14.0242 7.78799L13.3574 8.38465L14.0242 9.12988ZM16.8306 12.0119L16.0678 12.6587L16.0744 12.6662L16.8306 12.0119ZM19.9035 16.3528L20.104 17.3325L21.4561 17.0558L20.772 15.8571L19.9035 16.3528ZM17.2376 16.7464L16.3311 17.1686L16.6281 17.8064L17.3288 17.7423L17.2376 16.7464ZM19.5036 8.41838L18.8225 9.15059L20.037 10.2803L20.4691 8.67889L19.5036 8.41838ZM17.1548 6.89454L16.6991 6.0044L14.7958 6.97877L16.7637 7.8149L17.1548 6.89454ZM14.0233 8.16351L13.38 8.92913L14.0201 9.4669L14.6628 8.93235L14.0233 8.16351ZM12.6724 7.12329L12.4886 6.14033L10.1416 6.57919L12.1008 7.94386L12.6724 7.12329ZM14.0143 6.99811L14.0159 5.9981L14.0131 5.99811L14.0143 6.99811ZM10.8955 6.89454L11.2845 7.81577L13.2564 6.9831L11.3524 6.00504L10.8955 6.89454ZM8.54576 8.41028L7.57962 8.66829L8.00738 10.27L9.22465 9.14452L8.54576 8.41028ZM13.4631 8.65435L14.1319 9.39783L14.9877 8.62805L14.1059 7.88825L13.4631 8.65435ZM10.6604 11.5363L11.4162 12.1912L11.4223 12.1841L10.6604 11.5363ZM7.35334 16.2772L7.1293 17.2518L7.86447 17.4208L8.2289 16.7603L7.35334 16.2772ZM6.90303 16.1655L5.93436 16.4139L6.08089 16.9854L6.65207 17.1335L6.90303 16.1655ZM6.67337 14.3409L5.67337 14.3396L5.67337 14.3403L6.67337 14.3409ZM5.95378 13.8545L6.95187 13.9162L7.05155 12.3033L5.5636 12.9338L5.95378 13.8545ZM5.93756 14.3409H4.93756V14.3409L5.93756 14.3409ZM6.09247 15.916L5.75287 16.8566L7.41817 17.4579L7.07332 15.7213L6.09247 15.916ZM7.12819 18.5576L7.97851 18.0313L6.86464 16.2315L6.18168 18.2349L7.12819 18.5576ZM9.10955 20.7425L9.49963 21.6633L11.0847 20.9918L9.71619 19.9475L9.10955 20.7425ZM7.60191 17.43L7.79119 16.4481L7.02928 16.3012L6.69777 17.0028L7.60191 17.43ZM10.3524 17.8119L11.2589 18.2341L11.8628 16.9376L10.4378 16.8155L10.3524 17.8119ZM9.4806 19.6833L8.57413 19.2611L7.9116 20.6833H9.4806V19.6833ZM11.7168 19.6833V20.6833H12.3582L12.6257 20.1005L11.7168 19.6833ZM12.5121 17.9505L12.5481 16.9512L11.8815 16.9272L11.6032 17.5334L12.5121 17.9505ZM15.5724 17.9451L16.4811 17.5278L16.2008 16.9174L15.5297 16.9461L15.5724 17.9451ZM16.3703 19.6824L15.4616 20.0998L15.7292 20.6824H16.3703V19.6824ZM18.6066 19.6824V20.6824H20.1761L19.5129 19.2599L18.6066 19.6824ZM17.7249 17.7911L17.6243 16.7962L16.2237 16.9378L16.8185 18.2137L17.7249 17.7911ZM20.4267 17.3642L21.3306 16.9365L20.9913 16.2193L20.2157 16.3868L20.4267 17.3642ZM20.5672 17.666L21.4587 18.1191L21.6737 17.6961L21.4821 17.2621L20.5672 17.666ZM14.0233 21.6845L14.022 22.6845L14.0242 22.6845L14.0233 21.6845ZM18.9074 20.7641L18.3013 19.9687L16.9106 21.0285L18.5292 21.6898L18.9074 20.7641ZM20.9158 18.5396L21.8606 18.212L21.1675 16.2124L20.0628 18.0176L20.9158 18.5396ZM25.3778 14.8002C25.3778 13.8053 24.8841 13.0904 24.2297 12.6146C23.6244 12.1744 22.8624 11.9199 22.1911 11.7389L21.6705 13.67C22.2987 13.8393 22.7602 14.0189 23.0535 14.2321C23.2978 14.4097 23.3778 14.5675 23.3778 14.8002H25.3778ZM22.91 12.5015C22.5917 10.9659 21.88 9.53932 20.8445 8.36153L19.3425 9.68207C20.1492 10.5996 20.7036 11.711 20.9516 12.9074L22.91 12.5015ZM21.0441 9.33217C21.7063 7.30398 21.4021 5.96226 20.5239 5.21262L19.2254 6.73379C19.257 6.76075 19.3457 6.84456 19.3853 7.09971C19.4287 7.37934 19.4136 7.88238 19.1429 8.71143L21.0441 9.33217ZM20.5234 5.2122C19.871 4.656 19.0465 4.54692 18.2454 4.67811C17.4582 4.80702 16.6025 5.17708 15.7116 5.71057L16.7391 7.42645C17.5206 6.95845 18.1293 6.72375 18.5686 6.65182C18.9939 6.58217 19.1579 6.67618 19.2259 6.7342L20.5234 5.2122ZM16.4998 5.6069C15.693 5.37665 14.858 5.25976 14.019 5.2596L14.0186 7.2596C14.6722 7.25973 15.3225 7.35077 15.9509 7.53012L16.4998 5.6069ZM14.0186 5.2596C13.1843 5.25983 12.354 5.37532 11.5514 5.6028L12.0967 7.52702C12.7221 7.34977 13.369 7.25978 14.0191 7.2596L14.0186 5.2596ZM12.3374 5.70672C11.4473 5.17433 10.592 4.8056 9.80547 4.67742C9.00572 4.54709 8.18149 4.65584 7.53015 5.21156L8.82827 6.73304C8.89472 6.67634 9.05802 6.582 9.48379 6.65138C9.92274 6.72292 10.531 6.9567 11.3107 7.4231L12.3374 5.70672ZM7.5301 5.2116C6.65367 5.95947 6.34896 7.29751 7.00576 9.3175L8.90775 8.69908C8.63972 7.87477 8.62541 7.37469 8.66891 7.09681C8.7086 6.84322 8.79687 6.75983 8.82832 6.733L7.5301 5.2116ZM7.20675 8.34686C6.18568 9.50465 5.47752 10.9042 5.14953 12.4127L7.10386 12.8377C7.35942 11.6623 7.91118 10.5718 8.70676 9.66973L7.20675 8.34686ZM5.79377 11.6822C5.17048 11.9023 4.42193 12.2108 3.81678 12.6731C3.19544 13.1477 2.62207 13.8707 2.62207 14.8911H4.62207C4.62207 14.7128 4.7003 14.5149 5.03092 14.2624C5.37772 13.9974 5.88148 13.7723 6.45963 13.5681L5.79377 11.6822ZM2.62207 14.8911C2.62207 15.8687 3.18005 16.587 3.83956 17.0719C4.48536 17.5468 5.32456 17.8779 6.1789 18.1194L6.72294 16.1948C5.96517 15.9806 5.38995 15.7295 5.02435 15.4606C4.67246 15.2019 4.62207 15.015 4.62207 14.8911H2.62207ZM5.51459 17.5082C5.59121 17.7125 5.67639 17.9152 5.76617 18.1099L7.58237 17.2724C7.51185 17.1195 7.44572 16.9619 7.38725 16.806L5.51459 17.5082ZM5.75022 17.3089C5.33986 18.3008 5.09162 19.2284 5.07742 20.0448C5.06302 20.8734 5.29417 21.6936 5.96146 22.2626L7.2592 20.7408C7.19248 20.6839 7.06924 20.5327 7.07712 20.0796C7.08522 19.6141 7.23595 18.9494 7.59832 18.0734L5.75022 17.3089ZM5.99813 22.2924C6.48577 22.67 7.09283 22.8598 7.7087 22.8272L7.6032 20.83C7.46614 20.8372 7.33105 20.795 7.22253 20.711L5.99813 22.2924ZM7.70982 22.8272C8.60941 22.7786 9.48735 22.533 10.2815 22.1076L9.33716 20.3446C8.80135 20.6316 8.20902 20.7973 7.60208 20.8301L7.70982 22.8272ZM9.28591 22.0782C10.7099 22.9529 12.3488 23.4151 14.02 23.4131L14.0177 21.4131C12.7168 21.4146 11.4411 21.0549 10.3327 20.374L9.28591 22.0782ZM14.0177 23.4131C15.6741 23.415 17.2991 22.9613 18.7149 22.1016L17.6769 20.3921C16.5746 21.0614 15.3095 21.4146 14.02 21.4131L14.0177 23.4131ZM17.7354 22.1345C18.5362 22.5499 19.4177 22.7864 20.3189 22.8276L20.4103 20.8297C19.7985 20.8017 19.2 20.6412 18.6564 20.3591L17.7354 22.1345ZM20.3049 22.8268C20.9303 22.8642 21.5485 22.6772 22.0483 22.2995L20.8424 20.7039C20.7225 20.7945 20.5742 20.8394 20.4243 20.8304L20.3049 22.8268ZM22.0964 22.2607C22.7628 21.6891 22.9932 20.8675 22.9773 20.0362C22.9617 19.2174 22.7113 18.2869 22.2978 17.2907L20.4506 18.0574C20.8161 18.9381 20.9688 19.6062 20.9777 20.0744C20.9864 20.5301 20.8628 20.6839 20.7942 20.7427L22.0964 22.2607ZM22.2913 18.0728C22.3828 17.8622 22.4833 17.626 22.5728 17.379L20.6925 16.6974C20.6253 16.8828 20.5457 17.0717 20.4571 17.2753L22.2913 18.0728ZM21.9314 17.9926C22.8122 17.7169 23.6263 17.3577 24.24 16.8809C24.8599 16.3994 25.3796 15.7079 25.3796 14.7984H23.3796C23.3796 14.8678 23.353 15.0374 23.013 15.3015C22.6669 15.5704 22.1076 15.8417 21.334 16.0839L21.9314 17.9926ZM22.2988 14.7984C22.2988 14.5766 22.3914 14.443 22.4103 14.4173C22.4325 14.3874 22.4309 14.3998 22.3682 14.4463C22.2437 14.5387 22.001 14.6755 21.6068 14.8303L22.3376 16.692C22.8197 16.5027 23.2403 16.2897 23.56 16.0524C23.7195 15.9341 23.8852 15.7868 24.0192 15.6054C24.15 15.4283 24.2988 15.1516 24.2988 14.7984H22.2988ZM22.9563 15.9389C23.0517 15.4106 23.1001 14.8748 23.101 14.3379L21.101 14.3348C21.1003 14.7535 21.0626 15.1713 20.9881 15.5834L22.9563 15.9389ZM23.101 14.3364C23.101 14.1594 23.0948 13.9876 23.0861 13.8239L21.0889 13.9302C21.0964 14.0709 21.101 14.2053 21.101 14.3364H23.101ZM21.777 14.8276C22.0416 14.9141 22.2116 14.9888 22.3168 15.0449C22.4232 15.1016 22.4425 15.1284 22.4252 15.1103C22.3999 15.0839 22.352 15.02 22.3223 14.9206C22.2959 14.8322 22.2997 14.7582 22.2997 14.7984H24.2997C24.2997 14.7489 24.3033 14.5644 24.2387 14.3482C24.1708 14.1211 24.0468 13.9121 23.8698 13.7272C23.5461 13.3891 23.0533 13.1405 22.398 12.9265L21.777 14.8276ZM20.875 15.0795C20.7297 15.1234 20.5739 15.1666 20.4073 15.2089L20.9 17.1473C21.0925 17.0984 21.2772 17.0473 21.4537 16.994L20.875 15.0795ZM21.5266 15.6902C20.5684 13.9758 19.4373 12.3639 18.151 10.8796L16.6396 12.1894C17.8365 13.5706 18.8891 15.0706 19.7808 16.666L21.5266 15.6902ZM18.1571 10.8868C17.2592 9.8308 16.2918 8.83602 15.2613 7.90907L13.9238 9.39602C14.888 10.2634 15.7933 11.1942 16.6334 12.1823L18.1571 10.8868ZM15.2353 9.41863C15.7549 8.98269 16.3013 8.57984 16.8715 8.21247L15.7882 6.53127C15.1476 6.94404 14.5336 7.39666 13.9498 7.88646L15.2353 9.41863ZM16.0136 8.32055C17.2773 8.74178 18.3766 9.54952 19.1562 10.6296L20.7779 9.45909C19.7529 8.03901 18.3075 6.977 16.646 6.42318L16.0136 8.32055ZM19.1562 10.6296C19.9358 11.7097 20.3562 13.0075 20.358 14.3395L22.358 14.3368C22.3556 12.5855 21.8029 10.8792 20.7779 9.45909L19.1562 10.6296ZM20.358 14.3376C20.3577 14.8322 20.2995 15.3251 20.1845 15.8061L22.1298 16.271C22.281 15.638 22.3576 14.9895 22.358 14.3387L20.358 14.3376ZM13.1335 15.0293L14.1737 17.2943L15.9912 16.4597L14.951 14.1946L13.1335 15.0293ZM15.0519 15.8775C14.709 15.888 14.3548 15.8932 13.9891 15.8932V17.8932C14.3739 17.8932 14.7486 17.8877 15.113 17.8765L15.0519 15.8775ZM13.9891 15.8932C13.647 15.8932 13.3358 15.8931 13.0347 15.8822L12.9621 17.8809C13.3059 17.8933 13.6539 17.8932 13.9891 17.8932V15.8932ZM13.9069 17.2994L14.9508 15.0298L13.1337 14.1941L12.0899 16.4637L13.9069 17.2994ZM16.4942 12.7815L14.9452 9.57886L13.1447 10.4497L14.6938 13.6523L16.4942 12.7815ZM13.1458 9.57659L11.5841 12.7846L13.3824 13.66L14.9441 10.452L13.1458 9.57659ZM11.5767 12.8002L9.92225 16.3541L11.7354 17.1982L13.3898 13.6443L11.5767 12.8002ZM10.9025 15.7789C10.0226 15.7139 9.14667 15.6028 8.27837 15.4462L7.92334 17.4144C8.86036 17.5834 9.8056 17.7033 10.7552 17.7734L10.9025 15.7789ZM8.97107 16.923C9.82863 15.4082 10.8345 13.9824 11.9739 12.6664L10.4619 11.3573C9.23583 12.7733 8.15343 14.3076 7.23063 15.9376L8.97107 16.923ZM11.9806 12.6586C12.8192 11.6697 13.7248 10.7397 14.691 9.8751L13.3574 8.38465C12.3228 9.31041 11.3531 10.3062 10.4552 11.3651L11.9806 12.6586ZM13.3574 9.8751C14.3237 10.7397 15.2293 11.6697 16.0679 12.6586L17.5933 11.3651C16.6953 10.3062 15.7257 9.31041 14.691 8.38465L13.3574 9.8751ZM16.0744 12.6662C17.1947 13.9609 18.1863 15.3616 19.035 16.8486L20.772 15.8571C19.8588 14.2574 18.7921 12.7504 17.5868 11.3575L16.0744 12.6662ZM19.7029 15.3732C18.8584 15.546 18.005 15.672 17.1465 15.7506L17.3288 17.7423C18.2607 17.657 19.1872 17.5202 20.104 17.3325L19.7029 15.3732ZM18.1442 16.3243L16.5005 12.7947L14.6875 13.639L16.3311 17.1686L18.1442 16.3243ZM18.7456 7.29413C18.6095 7.17807 18.6558 7.09135 18.6668 7.28686C18.6767 7.4624 18.648 7.75077 18.5381 8.15788L20.4691 8.67889C20.6105 8.15475 20.6898 7.63932 20.6637 7.17452C20.6387 6.72969 20.5048 6.16609 20.0437 5.77265L18.7456 7.29413ZM20.1847 7.68618C19.4111 6.96663 18.5182 6.3873 17.5458 5.97417L16.7637 7.8149C17.5223 8.13723 18.219 8.58921 18.8225 9.15059L20.1847 7.68618ZM17.6105 7.78467C18.0886 7.53992 18.4524 7.41789 18.6935 7.37839C18.9677 7.33346 18.895 7.41985 18.748 7.29406L20.0484 5.77452C19.5268 5.32811 18.8601 5.32443 18.3702 5.40469C17.8471 5.49038 17.2765 5.70878 16.6991 6.0044L17.6105 7.78467ZM14.8 6.30641C14.3342 6.63313 13.8622 6.9969 13.3839 7.39467L14.6628 8.93235C15.1049 8.56459 15.5335 8.23489 15.9485 7.94378L14.8 6.30641ZM14.6666 7.39789C14.1898 6.99725 13.7138 6.62998 13.244 6.30273L12.1008 7.94386C12.5154 8.23263 12.9436 8.56244 13.38 8.92913L14.6666 7.39789ZM12.8562 8.10626C13.2385 8.03477 13.6266 7.99857 14.0155 7.99811L14.0131 5.99811C13.5017 5.99871 12.9913 6.04632 12.4886 6.14033L12.8562 8.10626ZM14.0128 7.99811C14.4045 7.99872 14.7954 8.03546 15.1804 8.10787L15.5501 6.14232C15.0442 6.04719 14.5306 5.99891 14.0159 5.99811L14.0128 7.99811ZM9.30837 7.29496C9.16216 7.41974 9.08996 7.33413 9.36145 7.37868C9.60077 7.41795 9.96246 7.53947 10.4385 7.78404L11.3524 6.00504C10.7766 5.70923 10.2075 5.49076 9.68532 5.40508C9.19533 5.32467 8.53098 5.32912 8.01011 5.77361L9.30837 7.29496ZM10.5065 5.9733C9.53461 6.38369 8.64145 6.95984 7.86686 7.67605L9.22465 9.14452C9.82911 8.58562 10.5261 8.13602 11.2845 7.81577L10.5065 5.9733ZM9.5119 8.15227C9.40406 7.74844 9.37616 7.46282 9.38625 7.28908C9.39744 7.09614 9.44283 7.18185 9.30843 7.29684L8.00824 5.77714C7.54962 6.16952 7.41533 6.72985 7.3896 7.17321C7.36276 7.63575 7.44069 8.14809 7.57962 8.66829L9.5119 8.15227ZM11.179 8.2108C11.751 8.57917 12.2992 8.98318 12.8204 9.42045L14.1059 7.88825C13.5203 7.39702 12.9045 6.94315 12.2619 6.52933L11.179 8.2108ZM12.7944 7.91087C11.7639 8.83782 10.7964 9.8326 9.89858 10.8886L11.4223 12.1841C12.2624 11.196 13.1676 10.2652 14.1319 9.39783L12.7944 7.91087ZM9.90466 10.8815C8.59359 12.3946 7.445 14.0411 6.47778 15.7941L8.2289 16.7603C9.12849 15.1299 10.1968 13.5985 11.4162 12.1912L9.90466 10.8815ZM7.57738 15.3026C7.43514 15.2699 7.29885 15.2351 7.15399 15.1975L6.65207 17.1335C6.79901 17.1716 6.95813 17.2124 7.1293 17.2518L7.57738 15.3026ZM7.8717 15.9172C7.73971 15.4023 7.67308 14.8729 7.67337 14.3414L5.67337 14.3403C5.67298 15.0397 5.76067 15.7364 5.93436 16.4139L7.8717 15.9172ZM7.67337 14.3422C7.67511 13.0077 8.09699 11.7077 8.87916 10.6264L7.25872 9.45419C6.23034 10.8757 5.67566 12.585 5.67337 14.3396L7.67337 14.3422ZM8.87916 10.6264C9.66133 9.54524 10.7641 8.73775 12.031 8.31854L11.4027 6.41979C9.73698 6.97097 8.28711 8.03263 7.25872 9.45419L8.87916 10.6264ZM5.69921 14.8947C5.69921 15.1312 5.57512 15.2249 5.63079 15.1725C5.69616 15.111 5.88945 14.9679 6.34395 14.7753L5.5636 12.9338C5.00221 13.1717 4.56821 13.4262 4.26028 13.7159C3.94264 14.0148 3.69921 14.4133 3.69921 14.8947H5.69921ZM4.95568 13.7928C4.94484 13.9682 4.93756 14.1516 4.93756 14.3409H6.93756C6.93756 14.2023 6.9429 14.0614 6.95187 13.9162L4.95568 13.7928ZM4.93756 14.3409C4.93758 14.9351 4.99588 15.528 5.11162 16.1108L7.07332 15.7213C6.98305 15.2667 6.93758 14.8043 6.93756 14.3408L4.93756 14.3409ZM6.43207 14.9755C6.01803 14.826 5.77045 14.6908 5.64663 14.5988C5.58583 14.5536 5.5863 14.5418 5.60829 14.5735C5.63257 14.6085 5.69831 14.7208 5.69831 14.8956H3.69831C3.69831 15.5523 4.158 15.9843 4.45383 16.2041C4.79697 16.4591 5.24648 16.6738 5.75287 16.8566L6.43207 14.9755ZM7.73249 20.1873C7.8837 20.3164 7.80105 20.4016 7.80788 20.0966C7.81383 19.8304 7.88949 19.4235 8.0747 18.8802L6.18168 18.2349C5.9616 18.8804 5.82066 19.503 5.80838 20.0518C5.79696 20.5619 5.89444 21.2478 6.43382 21.7083L7.73249 20.1873ZM6.27786 19.0838C6.86376 20.0305 7.61784 20.8621 8.50291 21.5374L9.71619 19.9475C9.02499 19.42 8.43607 18.7706 7.97851 18.0313L6.27786 19.0838ZM8.71947 19.8217C8.2982 20.0002 7.96797 20.0739 7.7533 20.0905C7.6459 20.0989 7.59004 20.0911 7.57699 20.0885C7.55626 20.0844 7.63762 20.0947 7.74274 20.1848L6.44158 21.7036C6.88981 22.0876 7.4926 22.1168 7.90803 22.0845C8.38684 22.0474 8.93021 21.9045 9.49963 21.6633L8.71947 19.8217ZM8.40134 18.082C8.43134 18.0145 8.4642 17.9458 8.50605 17.8572L6.69777 17.0028C6.66217 17.0781 6.61577 17.1751 6.57372 17.2697L8.40134 18.082ZM7.41264 18.4119C8.35651 18.5939 9.30928 18.7261 10.267 18.8082L10.4378 16.8155C9.54976 16.7394 8.66635 16.6168 7.79119 16.4481L7.41264 18.4119ZM9.44593 17.3896L8.57413 19.2611L10.3871 20.1056L11.2589 18.2341L9.44593 17.3896ZM9.4806 20.6833H11.7168V18.6833H9.4806V20.6833ZM12.6257 20.1005L13.4209 18.3677L11.6032 17.5334L10.808 19.2662L12.6257 20.1005ZM12.4761 18.9499C13.1386 18.9738 13.6721 18.9794 13.99 18.9794V16.9794C13.6937 16.9794 13.1843 16.9741 12.5481 16.9512L12.4761 18.9499ZM13.99 18.9794C14.5307 18.9794 15.0745 18.9673 15.6151 18.9442L15.5297 16.9461C15.0165 16.968 14.5012 16.9794 13.99 16.9794V18.9794ZM14.6637 18.3625L15.4616 20.0998L17.2791 19.2651L16.4811 17.5278L14.6637 18.3625ZM16.3703 20.6824H18.6066V18.6824H16.3703V20.6824ZM19.5129 19.2599L18.6312 17.3686L16.8185 18.2137L17.7002 20.105L19.5129 19.2599ZM17.8255 18.7861C18.7705 18.6905 19.7094 18.5422 20.6378 18.3417L20.2157 16.3868C19.3602 16.5715 18.4951 16.7082 17.6243 16.7962L17.8255 18.7861ZM19.5228 17.792C19.5751 17.9023 19.6152 17.9855 19.6524 18.0698L21.4821 17.2621C21.431 17.1465 21.3739 17.0279 21.3306 16.9365L19.5228 17.792ZM19.6758 17.2128C19.1453 18.2566 18.3364 19.1332 17.3387 19.7459L18.3853 21.4502C19.6974 20.6445 20.761 19.4916 21.4587 18.1191L19.6758 17.2128ZM17.3387 19.7459C16.341 20.3586 15.1933 20.6835 14.0224 20.6845L14.0242 22.6845C15.5639 22.6831 17.0733 22.256 18.3853 21.4502L17.3387 19.7459ZM14.0247 20.6845C12.8562 20.6829 11.7108 20.3588 10.7146 19.7479L9.66904 21.4528C10.979 22.2562 12.4853 22.6824 14.022 22.6845L14.0247 20.6845ZM10.7146 19.7479C9.71851 19.137 8.91034 18.263 8.37913 17.2222L6.59773 18.1313C7.29629 19.5001 8.35908 20.6494 9.66904 21.4528L10.7146 19.7479ZM20.3168 20.1837C20.4265 20.0901 20.5089 20.0832 20.4741 20.0899C20.4506 20.0944 20.3835 20.1022 20.2663 20.094C20.0329 20.0777 19.692 20.0044 19.2856 19.8384L18.5292 21.6898C19.0927 21.92 19.6426 22.0553 20.1267 22.0891C20.3683 22.106 20.6167 22.0993 20.8537 22.0535C21.0793 22.0099 21.3672 21.9168 21.6156 21.7047L20.3168 20.1837ZM19.5135 21.5595C20.4135 20.8736 21.1782 20.0266 21.7687 19.0615L20.0628 18.0176C19.6015 18.7714 19.0042 19.433 18.3013 19.9687L19.5135 21.5595ZM19.9709 18.8671C20.1598 19.4119 20.2366 19.8208 20.2429 20.0885C20.25 20.3946 20.1669 20.3131 20.3156 20.1857L21.6169 21.7045C22.1555 21.2429 22.2543 20.5563 22.2423 20.0419C22.2294 19.4891 22.0861 18.8624 21.8606 18.212L19.9709 18.8671Z" fill="#6E7191" mask="url(#path-2-inside-1_328_47848)"/>
</svg>
