<svg width="16" height="16" viewBox="0 0 16 16" fill="none" xmlns="http://www.w3.org/2000/svg">
<g clip-path="url(#clip0_328_47627)">
<path d="M15.4143 1.76276L14.2419 0.585871C13.8667 0.210739 13.3578 0 12.8272 0C12.2967 0 11.7878 0.210739 11.4126 0.585871L9.08635 2.91298L7.99924 3.9992L0.401902 11.5983L0.00456896 15.1663C-0.00703257 15.271 0.00352 15.3769 0.0355405 15.4772C0.067561 15.5775 0.120332 15.6699 0.190423 15.7484C0.260514 15.827 0.346355 15.8899 0.442364 15.9331C0.538372 15.9763 0.6424 15.9988 0.74768 15.9992C0.774347 15.9992 0.80368 15.9992 0.836569 15.9948L4.40279 15.6019L12.001 8.00098L13.0855 6.91832L15.4143 4.59209C15.7895 4.21687 16.0002 3.70801 16.0002 3.17743C16.0002 2.64684 15.7895 2.13799 15.4143 1.76276ZM3.71035 14.1681L1.59924 14.4019L1.83479 12.2863L9.06146 5.05965L10.0295 4.09165L11.9086 5.97076L10.9406 6.93876L3.71035 14.1681ZM14.3539 3.52543L12.969 4.90943L11.0917 3.02943L12.4748 1.64632C12.5214 1.59944 12.5768 1.56225 12.6378 1.53687C12.6988 1.51148 12.7643 1.49842 12.8303 1.49842C12.8964 1.49842 12.9619 1.51148 13.0229 1.53687C13.0839 1.56225 13.1393 1.59944 13.1859 1.64632L14.3539 2.81876C14.4479 2.91321 14.5007 3.04105 14.5007 3.17432C14.5007 3.30758 14.4479 3.43542 14.3539 3.52987" fill="#6E7191"/>
</g>
<defs>
<clipPath id="clip0_328_47627">
<rect width="16" height="16" fill="white"/>
</clipPath>
</defs>
</svg>
