<svg width="18" height="16" viewBox="0 0 18 16" fill="none" xmlns="http://www.w3.org/2000/svg">
<path d="M1.85503 8.86798C1.70343 8.60399 1.62366 8.30489 1.62366 8.00048C1.62366 7.69606 1.70343 7.39696 1.85503 7.13298C3.47803 4.30598 6.07503 2.47498 9.00003 2.47498C11.925 2.47498 14.524 4.30598 16.145 7.13298C16.2966 7.39696 16.3764 7.69606 16.3764 8.00048C16.3764 8.30489 16.2966 8.60399 16.145 8.86798C14.524 11.695 11.924 13.526 9.00003 13.526C6.07603 13.526 3.47803 11.695 1.85503 8.86798Z" stroke="#6E7191" stroke-width="2"/>
<path d="M9 10C10.1046 10 11 9.10457 11 8C11 6.89543 10.1046 6 9 6C7.89543 6 7 6.89543 7 8C7 9.10457 7.89543 10 9 10Z" stroke="#6E7191" stroke-width="2"/>
</svg>
