<svg width="16" height="16" viewBox="0 0 16 16" fill="none" xmlns="http://www.w3.org/2000/svg">
<path d="M8.99855 11.6295L14.3126 14.93C14.3783 14.9708 14.4551 14.9947 14.5349 14.9992C14.6147 15.0037 14.6943 14.9886 14.7651 14.9555C14.836 14.9224 14.8953 14.8725 14.9367 14.8114C14.9781 14.7503 15 14.6802 15 14.6087V4.12971C15 3.29966 14.6312 2.5036 13.9748 1.91667C13.3184 1.32974 12.4281 1 11.4998 1H4.5002C3.57189 1 2.6816 1.32974 2.02518 1.91667C1.36877 2.5036 1 3.29966 1 4.12971V14.608C1.00001 14.6795 1.0219 14.7496 1.06331 14.8107C1.10471 14.8718 1.16405 14.9217 1.23488 14.9548C1.30571 14.9879 1.38532 15.003 1.46509 14.9985C1.54485 14.994 1.62172 14.9701 1.68736 14.9293L7.00224 11.6288C7.29537 11.4469 7.6437 11.3495 8.00051 11.3496C8.35733 11.3497 8.70557 11.4474 8.99855 11.6295V11.6295Z" stroke="#6E7191" stroke-width="2" stroke-linecap="round" stroke-linejoin="round"/>
</svg>
