<svg width="16" height="16" viewBox="0 0 16 16" fill="none" xmlns="http://www.w3.org/2000/svg">
<path fill-rule="evenodd" clip-rule="evenodd" d="M10.3815 0.547287L14.4229 4.44005C14.6068 4.61521 14.7525 4.82394 14.8516 5.05401C14.9507 5.28409 15.0012 5.5309 15.0001 5.77999V11.6186C14.9983 12.1108 14.7959 12.5826 14.4364 12.9325C14.2593 13.1045 14.0486 13.241 13.8164 13.3342C13.5842 13.4274 13.3352 13.4754 13.0837 13.4754H5.56116C5.30764 13.4764 5.05642 13.4289 4.82209 13.3357C4.58775 13.2425 4.37493 13.1054 4.19598 12.9325C3.83866 12.5857 3.63637 12.118 3.63232 11.6295V1.85682C3.63414 1.36463 3.83655 0.8928 4.19598 0.542942C4.3726 0.370275 4.58324 0.233315 4.81553 0.140086C5.04783 0.0468562 5.29711 -0.000765744 5.54876 1.77176e-05H8.98591C9.24451 -0.0010657 9.50074 0.0475486 9.7396 0.14301C9.97846 0.238471 10.1951 0.378863 10.377 0.555973L10.3815 0.547287ZM10.1887 4.62573H12.7601L10.1887 2.14891V4.62573ZM13.0758 12.2093C13.236 12.2097 13.3899 12.1492 13.5041 12.041C13.5622 11.986 13.6083 11.9204 13.6399 11.8481C13.6714 11.7758 13.6877 11.6981 13.6879 11.6197V5.88966H9.53265C9.35901 5.88852 9.19281 5.82157 9.07002 5.7033C8.94724 5.58503 8.87774 5.42495 8.87656 5.2577V1.25526H5.55213C5.47268 1.25435 5.39384 1.26878 5.32027 1.29768C5.2467 1.32659 5.17989 1.36939 5.12376 1.42357C5.06577 1.47863 5.01967 1.5442 4.98813 1.61652C4.95659 1.68883 4.94023 1.76644 4.94 1.84487V11.6175C4.939 11.694 4.95396 11.77 4.98397 11.8409C5.01398 11.9117 5.05844 11.9761 5.11473 12.0301C5.17139 12.0866 5.23939 12.1315 5.31458 12.1619C5.38977 12.1923 5.47058 12.2077 5.55213 12.2071L13.0758 12.2093Z" fill="#6E7191"/>
<path d="M2.92882 14.736H10.4513C10.6253 14.736 10.7922 14.8026 10.9153 14.9211C11.0383 15.0396 11.1074 15.2004 11.1074 15.368C11.1074 15.5356 11.0383 15.6963 10.9153 15.8148C10.7922 15.9333 10.6253 15.9999 10.4513 15.9999H2.92882C2.6753 16.0009 2.42408 15.9534 2.18975 15.8602C1.95541 15.767 1.74261 15.63 1.56365 15.457C1.20634 15.1102 1.00404 14.6426 1 14.154V4.38135C1 4.21375 1.06911 4.05301 1.19216 3.9345C1.3152 3.81598 1.48209 3.74939 1.65609 3.74939C1.8301 3.74939 1.99697 3.81598 2.12001 3.9345C2.24305 4.05301 2.31219 4.21375 2.31219 4.38135V14.154C2.31118 14.2305 2.32612 14.3065 2.35613 14.3774C2.38615 14.4482 2.43062 14.5126 2.48692 14.5666C2.54357 14.6231 2.61156 14.6679 2.68674 14.6984C2.76193 14.7288 2.84276 14.7442 2.92431 14.7436L2.92882 14.736Z" fill="#6E7191"/>
</svg>
