<svg width="16" height="16" viewBox="0 0 16 16" fill="none" xmlns="http://www.w3.org/2000/svg">
<path d="M15.5 12.5714H5V12C5 11.7143 4.75 11.4286 4.5 11.4286H3.5C3.21875 11.4286 3 11.7143 3 12V12.5714H0.5C0.21875 12.5714 0 12.8571 0 13.1429V14.2857C0 14.6071 0.21875 14.8571 0.5 14.8571H3V15.4286C3 15.75 3.21875 16 3.5 16H4.5C4.75 16 5 15.75 5 15.4286V14.8571H15.5C15.75 14.8571 16 14.6071 16 14.2857V13.1429C16 12.8571 15.75 12.5714 15.5 12.5714ZM15.5 6.85714H13V6.28571C13 6 12.75 5.71429 12.5 5.71429H11.5C11.2188 5.71429 11 6 11 6.28571V6.85714H0.5C0.21875 6.85714 0 7.14286 0 7.42857V8.57143C0 8.89286 0.21875 9.14286 0.5 9.14286H11V9.71429C11 10.0357 11.2188 10.2857 11.5 10.2857H12.5C12.75 10.2857 13 10.0357 13 9.71429V9.14286H15.5C15.75 9.14286 16 8.89286 16 8.57143V7.42857C16 7.14286 15.75 6.85714 15.5 6.85714ZM15.5 1.14286H9V0.571429C9 0.285714 8.75 0 8.5 0H7.5C7.21875 0 7 0.285714 7 0.571429V1.14286H0.5C0.21875 1.14286 0 1.42857 0 1.71429V2.85714C0 3.17857 0.21875 3.42857 0.5 3.42857H7V4C7 4.32143 7.21875 4.57143 7.5 4.57143H8.5C8.75 4.57143 9 4.32143 9 4V3.42857H15.5C15.75 3.42857 16 3.17857 16 2.85714V1.71429C16 1.42857 15.75 1.14286 15.5 1.14286Z" fill="#6E7191"/>
</svg>
