<svg width="80" height="80" viewBox="0 0 80 80" fill="none" xmlns="http://www.w3.org/2000/svg">
<g clip-path="url(#clip0_328_47727)">
<path d="M37.7 21H40V59.2H37.7V55.4C37.7 55 37.3 54.6 36.9 54.6H34.6C33.3 54.6 32.3 53.6 32.3 52.3V27.9C32.3 26.7 33.3 25.6 34.6 25.6H36.9C37.3 25.6 37.7 25.2 37.7 24.8V21ZM37 19.4C36.6 19.4 36.2 19.8 36.2 20.2V24H34.7C32.6 24 30.8 25.7 30.8 27.8V52.3C30.8 54.4 32.5 56.1 34.7 56.1H36.2V59.9C36.2 60.3 36.6 60.7 37 60.7H40.9C41.3 60.7 41.7 60.3 41.7 59.9V20.2C41.7 19.8 41.3 19.4 40.9 19.4C40.8 19.4 37 19.4 37 19.4Z" fill="#4E4B66" stroke="#4E4B66" stroke-width="0.6158" stroke-miterlimit="10"/>
<path d="M37.7 21H40V59.2H37.7V55.4C37.7 55 37.3 54.6 36.9 54.6H34.6C33.3 54.6 32.3 53.6 32.3 52.3V27.9C32.3 26.7 33.3 25.6 34.6 25.6H36.9C37.3 25.6 37.7 25.2 37.7 24.8V21ZM37 19.4C36.6 19.4 36.2 19.8 36.2 20.2V24H34.7C32.6 24 30.8 25.7 30.8 27.8V52.3C30.8 54.4 32.5 56.1 34.7 56.1H36.2V59.9C36.2 60.3 36.6 60.7 37 60.7H40.9C41.3 60.7 41.7 60.3 41.7 59.9V20.2C41.7 19.8 41.3 19.4 40.9 19.4C40.8 19.4 37 19.4 37 19.4Z" fill="#4E4B66" stroke="#4E4B66" stroke-width="0.6158" stroke-miterlimit="10"/>
<path d="M37 27H31.6V28.6H37V27Z" fill="#4E4B66" stroke="#4E4B66" stroke-width="0.6158" stroke-miterlimit="10"/>
<path d="M37 27H31.6V28.6H37V27Z" fill="#4E4B66" stroke="#4E4B66" stroke-width="0.6158" stroke-miterlimit="10"/>
<path d="M37 30.2001H31.6V31.8001H37V30.2001Z" fill="#4E4B66" stroke="#4E4B66" stroke-width="0.6158" stroke-miterlimit="10"/>
<path d="M37 30.2001H31.6V31.8001H37V30.2001Z" fill="#4E4B66" stroke="#4E4B66" stroke-width="0.6158" stroke-miterlimit="10"/>
<path d="M37 33.2001H31.6V34.8001H37V33.2001Z" fill="#4E4B66" stroke="#4E4B66" stroke-width="0.6158" stroke-miterlimit="10"/>
<path d="M37 33.2001H31.6V34.8001H37V33.2001Z" fill="#4E4B66" stroke="#4E4B66" stroke-width="0.6158" stroke-miterlimit="10"/>
<path d="M37 36.2001H31.6V37.8001H37V36.2001Z" fill="#4E4B66" stroke="#4E4B66" stroke-width="0.6158" stroke-miterlimit="10"/>
<path d="M37 36.2001H31.6V37.8001H37V36.2001Z" fill="#4E4B66" stroke="#4E4B66" stroke-width="0.6158" stroke-miterlimit="10"/>
<path d="M37 39.2001H31.6V40.8001H37V39.2001Z" fill="#4E4B66" stroke="#4E4B66" stroke-width="0.6158" stroke-miterlimit="10"/>
<path d="M37 39.2001H31.6V40.8001H37V39.2001Z" fill="#4E4B66" stroke="#4E4B66" stroke-width="0.6158" stroke-miterlimit="10"/>
<path d="M37 42.3H31.6V43.9001H37V42.3Z" fill="#4E4B66" stroke="#4E4B66" stroke-width="0.6158" stroke-miterlimit="10"/>
<path d="M37 42.3H31.6V43.9001H37V42.3Z" fill="#4E4B66" stroke="#4E4B66" stroke-width="0.6158" stroke-miterlimit="10"/>
<path d="M37 45.3H31.6V46.9001H37V45.3Z" fill="#4E4B66" stroke="#4E4B66" stroke-width="0.6158" stroke-miterlimit="10"/>
<path d="M37 45.3H31.6V46.9001H37V45.3Z" fill="#4E4B66" stroke="#4E4B66" stroke-width="0.6158" stroke-miterlimit="10"/>
<path d="M37 48.4H31.6V50H37V48.4Z" fill="#4E4B66" stroke="#4E4B66" stroke-width="0.6158" stroke-miterlimit="10"/>
<path d="M37 48.4H31.6V50H37V48.4Z" fill="#4E4B66" stroke="#4E4B66" stroke-width="0.6158" stroke-miterlimit="10"/>
<path d="M37 51.5H31.6V53.1H37V51.5Z" fill="#4E4B66" stroke="#4E4B66" stroke-width="0.6158" stroke-miterlimit="10"/>
<path d="M37 51.5H31.6V53.1H37V51.5Z" fill="#4E4B66" stroke="#4E4B66" stroke-width="0.6158" stroke-miterlimit="10"/>
<path d="M55.2 21H53V59.2H55.3V55.4C55.3 55 55.7 54.6 56.1 54.6H58.4C59.7 54.6 60.7 53.6 60.7 52.3V27.9C60.7 26.7 59.7 25.6 58.4 25.6H56C55.6 25.6 55.2 25.2 55.2 24.8V21ZM56 19.4C56.4 19.4 56.8 19.8 56.8 20.2V24H58.3C60.4 24 62.2 25.7 62.2 27.8V52.3C62.2 54.4 60.5 56.1 58.3 56.1H56.8V59.9C56.8 60.3 56.4 60.7 56 60.7H52.1C51.7 60.7 51.3 60.3 51.3 59.9V20.2C51.3 19.8 51.7 19.4 52.1 19.4C52.1 19.4 56 19.4 56 19.4Z" fill="#4E4B66" stroke="#4E4B66" stroke-width="0.6158" stroke-miterlimit="10"/>
<path d="M55.2 21H53V59.2H55.3V55.4C55.3 55 55.7 54.6 56.1 54.6H58.4C59.7 54.6 60.7 53.6 60.7 52.3V27.9C60.7 26.7 59.7 25.6 58.4 25.6H56C55.6 25.6 55.2 25.2 55.2 24.8V21ZM56 19.4C56.4 19.4 56.8 19.8 56.8 20.2V24H58.3C60.4 24 62.2 25.7 62.2 27.8V52.3C62.2 54.4 60.5 56.1 58.3 56.1H56.8V59.9C56.8 60.3 56.4 60.7 56 60.7H52.1C51.7 60.7 51.3 60.3 51.3 59.9V20.2C51.3 19.8 51.7 19.4 52.1 19.4C52.1 19.4 56 19.4 56 19.4Z" fill="#4E4B66" stroke="#4E4B66" stroke-width="0.6158" stroke-miterlimit="10"/>
<path d="M61.4 27H56V28.6H61.4V27Z" fill="#4E4B66" stroke="#4E4B66" stroke-width="0.6158" stroke-miterlimit="10"/>
<path d="M61.4 27H56V28.6H61.4V27Z" fill="#4E4B66" stroke="#4E4B66" stroke-width="0.6158" stroke-miterlimit="10"/>
<path d="M61.4 30.2001H56V31.8001H61.4V30.2001Z" fill="#4E4B66" stroke="#4E4B66" stroke-width="0.6158" stroke-miterlimit="10"/>
<path d="M61.4 30.2001H56V31.8001H61.4V30.2001Z" fill="#4E4B66" stroke="#4E4B66" stroke-width="0.6158" stroke-miterlimit="10"/>
<path d="M61.4 33.2001H56V34.8001H61.4V33.2001Z" fill="#4E4B66" stroke="#4E4B66" stroke-width="0.6158" stroke-miterlimit="10"/>
<path d="M61.4 33.2001H56V34.8001H61.4V33.2001Z" fill="#4E4B66" stroke="#4E4B66" stroke-width="0.6158" stroke-miterlimit="10"/>
<path d="M61.4 36.2001H56V37.8001H61.4V36.2001Z" fill="#4E4B66" stroke="#4E4B66" stroke-width="0.6158" stroke-miterlimit="10"/>
<path d="M61.4 36.2001H56V37.8001H61.4V36.2001Z" fill="#4E4B66" stroke="#4E4B66" stroke-width="0.6158" stroke-miterlimit="10"/>
<path d="M61.4 39.2001H56V40.8001H61.4V39.2001Z" fill="#4E4B66" stroke="#4E4B66" stroke-width="0.6158" stroke-miterlimit="10"/>
<path d="M61.4 39.2001H56V40.8001H61.4V39.2001Z" fill="#4E4B66" stroke="#4E4B66" stroke-width="0.6158" stroke-miterlimit="10"/>
<path d="M61.4 42.3H56V43.9001H61.4V42.3Z" fill="#4E4B66" stroke="#4E4B66" stroke-width="0.6158" stroke-miterlimit="10"/>
<path d="M61.4 42.3H56V43.9001H61.4V42.3Z" fill="#4E4B66" stroke="#4E4B66" stroke-width="0.6158" stroke-miterlimit="10"/>
<path d="M61.4 45.3H56V46.9001H61.4V45.3Z" fill="#4E4B66" stroke="#4E4B66" stroke-width="0.6158" stroke-miterlimit="10"/>
<path d="M61.4 45.3H56V46.9001H61.4V45.3Z" fill="#4E4B66" stroke="#4E4B66" stroke-width="0.6158" stroke-miterlimit="10"/>
<path d="M61.4 48.4H56V50H61.4V48.4Z" fill="#4E4B66" stroke="#4E4B66" stroke-width="0.6158" stroke-miterlimit="10"/>
<path d="M61.4 48.4H56V50H61.4V48.4Z" fill="#4E4B66" stroke="#4E4B66" stroke-width="0.6158" stroke-miterlimit="10"/>
<path d="M61.4 51.5H56V53.1H61.4V51.5Z" fill="#4E4B66" stroke="#4E4B66" stroke-width="0.6158" stroke-miterlimit="10"/>
<path d="M61.4 51.5H56V53.1H61.4V51.5Z" fill="#4E4B66" stroke="#4E4B66" stroke-width="0.6158" stroke-miterlimit="10"/>
<path d="M27 30.1C26.5 30.1 26.2 30.5 26.2 30.9V49.3C26.2 49.7 26.6 50.1 27 50.1C27.5 50.1 27.9 49.8 27.9 49.3V31C27.9 30.4 27.5 30.1 27 30.1Z" fill="#4E4B66" stroke="#4E4B66" stroke-width="0.6158" stroke-miterlimit="10"/>
<path d="M27 30.1C26.5 30.1 26.2 30.5 26.2 30.9V49.3C26.2 49.7 26.6 50.1 27 50.1C27.5 50.1 27.9 49.8 27.9 49.3V31C27.9 30.4 27.5 30.1 27 30.1Z" fill="#4E4B66" stroke="#4E4B66" stroke-width="0.6158" stroke-miterlimit="10"/>
<path d="M17.9 30.1C17.4 30.1 17.1 30.5 17.1 30.9V49.3C17.1 49.7 17.5 50.1 17.9 50.1C18.4 50.1 18.8 49.8 18.8 49.3V31C18.7 30.4 18.4 30.1 17.9 30.1Z" fill="#4E4B66" stroke="#4E4B66" stroke-width="0.6158" stroke-miterlimit="10"/>
<path d="M17.9 30.1C17.4 30.1 17.1 30.5 17.1 30.9V49.3C17.1 49.7 17.5 50.1 17.9 50.1C18.4 50.1 18.8 49.8 18.8 49.3V31C18.7 30.4 18.4 30.1 17.9 30.1Z" fill="#4E4B66" stroke="#4E4B66" stroke-width="0.6158" stroke-miterlimit="10"/>
<path d="M26.9999 31.7001H17.7999V33.3001H26.9999V31.7001Z" fill="#4E4B66" stroke="#4E4B66" stroke-width="0.6158" stroke-miterlimit="10"/>
<path d="M26.9999 31.7001H17.7999V33.3001H26.9999V31.7001Z" fill="#4E4B66" stroke="#4E4B66" stroke-width="0.6158" stroke-miterlimit="10"/>
<path d="M24.7999 32.4H23.2V47.7H24.7999V32.4Z" fill="#4E4B66" stroke="#4E4B66" stroke-width="0.6158" stroke-miterlimit="10"/>
<path d="M24.7999 32.4H23.2V47.7H24.7999V32.4Z" fill="#4E4B66" stroke="#4E4B66" stroke-width="0.6158" stroke-miterlimit="10"/>
<path d="M21.7999 32.4H20.2V47.7H21.7999V32.4Z" fill="#4E4B66" stroke="#4E4B66" stroke-width="0.6158" stroke-miterlimit="10"/>
<path d="M21.7999 32.4H20.2V47.7H21.7999V32.4Z" fill="#4E4B66" stroke="#4E4B66" stroke-width="0.6158" stroke-miterlimit="10"/>
<path d="M26.9999 46.9H17.7999V48.5H26.9999V46.9Z" fill="#4E4B66" stroke="#4E4B66" stroke-width="0.6158" stroke-miterlimit="10"/>
<path d="M26.9999 46.9H17.7999V48.5H26.9999V46.9Z" fill="#4E4B66" stroke="#4E4B66" stroke-width="0.6158" stroke-miterlimit="10"/>
<path d="M33.2 36.2001H27V37.8001H33.2V36.2001Z" fill="#4E4B66" stroke="#4E4B66" stroke-width="0.6158" stroke-miterlimit="10"/>
<path d="M33.2 36.2001H27V37.8001H33.2V36.2001Z" fill="#4E4B66" stroke="#4E4B66" stroke-width="0.6158" stroke-miterlimit="10"/>
<path d="M33.2 42.3H27V43.9001H33.2V42.3Z" fill="#4E4B66" stroke="#4E4B66" stroke-width="0.6158" stroke-miterlimit="10"/>
<path d="M33.2 42.3H27V43.9001H33.2V42.3Z" fill="#4E4B66" stroke="#4E4B66" stroke-width="0.6158" stroke-miterlimit="10"/>
<path d="M52.2999 22.5H40.7V24.1H52.2999V22.5Z" fill="#4E4B66" stroke="#4E4B66" stroke-width="0.6158" stroke-miterlimit="10"/>
<path d="M52.2999 22.5H40.7V24.1H52.2999V22.5Z" fill="#4E4B66" stroke="#4E4B66" stroke-width="0.6158" stroke-miterlimit="10"/>
<path d="M52.2999 56H40.7V57.6H52.2999V56Z" fill="#4E4B66" stroke="#4E4B66" stroke-width="0.6158" stroke-miterlimit="10"/>
<path d="M52.2999 56H40.7V57.6H52.2999V56Z" fill="#4E4B66" stroke="#4E4B66" stroke-width="0.6158" stroke-miterlimit="10"/>
<path d="M44.5 27.1H48.4V28.6H44.5V27.1ZM44.5 25.5C43.6 25.5 43 26.2 43 27V28.6C43 29.5 43.7 30.1 44.5 30.1H48.4C49.3 30.1 49.9 29.4 49.9 28.6V27.1C49.9 26.2 49.2 25.6 48.4 25.6L44.5 25.5Z" fill="#4E4B66" stroke="#4E4B66" stroke-width="0.6158" stroke-miterlimit="10"/>
<path d="M44.5 27.1H48.4V28.6H44.5V27.1ZM44.5 25.5C43.6 25.5 43 26.2 43 27V28.6C43 29.5 43.7 30.1 44.5 30.1H48.4C49.3 30.1 49.9 29.4 49.9 28.6V27.1C49.9 26.2 49.2 25.6 48.4 25.6L44.5 25.5Z" fill="#4E4B66" stroke="#4E4B66" stroke-width="0.6158" stroke-miterlimit="10"/>
<path d="M44.5 33.2001H48.4V34.7001H44.5V33.2001ZM44.5 31.7001C43.6 31.7001 43 32.4001 43 33.2001V34.7001C43 35.6001 43.7 36.2001 44.5 36.2001H48.4C49.3 36.2001 49.9 35.5001 49.9 34.7001V33.2001C49.9 32.3001 49.2 31.7001 48.4 31.7001C48.4 31.7001 44.5 31.7001 44.5 31.7001Z" fill="#4E4B66" stroke="#4E4B66" stroke-width="0.6158" stroke-miterlimit="10"/>
<path d="M44.5 33.2001H48.4V34.7001H44.5V33.2001ZM44.5 31.7001C43.6 31.7001 43 32.4001 43 33.2001V34.7001C43 35.6001 43.7 36.2001 44.5 36.2001H48.4C49.3 36.2001 49.9 35.5001 49.9 34.7001V33.2001C49.9 32.3001 49.2 31.7001 48.4 31.7001C48.4 31.7001 44.5 31.7001 44.5 31.7001Z" fill="#4E4B66" stroke="#4E4B66" stroke-width="0.6158" stroke-miterlimit="10"/>
<path d="M44.5 39.2001H48.4V40.7001H44.5V39.2001ZM44.5 37.7001C43.6 37.7001 43 38.4001 43 39.2001V40.7001C43 41.6001 43.7 42.2001 44.5 42.2001H48.4C49.3 42.2001 49.9 41.5001 49.9 40.7001V39.2001C49.9 38.3001 49.2 37.7001 48.4 37.7001H44.5Z" fill="#4E4B66" stroke="#4E4B66" stroke-width="0.6158" stroke-miterlimit="10"/>
<path d="M44.5 39.2001H48.4V40.7001H44.5V39.2001ZM44.5 37.7001C43.6 37.7001 43 38.4001 43 39.2001V40.7001C43 41.6001 43.7 42.2001 44.5 42.2001H48.4C49.3 42.2001 49.9 41.5001 49.9 40.7001V39.2001C49.9 38.3001 49.2 37.7001 48.4 37.7001H44.5Z" fill="#4E4B66" stroke="#4E4B66" stroke-width="0.6158" stroke-miterlimit="10"/>
<path d="M44.5 45.4001H48.4V46.9001H44.5V45.4001ZM44.5 43.8C43.6 43.8 43 44.5 43 45.3V46.8C43 47.7 43.7 48.3 44.5 48.3H48.4C49.3 48.3 49.9 47.6 49.9 46.8V45.3C49.9 44.4 49.2 43.8 48.4 43.8H44.5Z" fill="#4E4B66" stroke="#4E4B66" stroke-width="0.6158" stroke-miterlimit="10"/>
<path d="M44.5 45.4001H48.4V46.9001H44.5V45.4001ZM44.5 43.8C43.6 43.8 43 44.5 43 45.3V46.8C43 47.7 43.7 48.3 44.5 48.3H48.4C49.3 48.3 49.9 47.6 49.9 46.8V45.3C49.9 44.4 49.2 43.8 48.4 43.8H44.5Z" fill="#4E4B66" stroke="#4E4B66" stroke-width="0.6158" stroke-miterlimit="10"/>
<path d="M44.5 51.5H48.4V53H44.5V51.5ZM44.5 49.9C43.6 49.9 43 50.6 43 51.4V53C43 53.9 43.7 54.5 44.5 54.5H48.4C49.3 54.5 49.9 53.8 49.9 53V51.5C49.9 50.6 49.2 50 48.4 50H44.5V49.9Z" fill="#4E4B66" stroke="#4E4B66" stroke-width="0.6158" stroke-miterlimit="10"/>
<path d="M44.5 51.5H48.4V53H44.5V51.5ZM44.5 49.9C43.6 49.9 43 50.6 43 51.4V53C43 53.9 43.7 54.5 44.5 54.5H48.4C49.3 54.5 49.9 53.8 49.9 53V51.5C49.9 50.6 49.2 50 48.4 50H44.5V49.9Z" fill="#4E4B66" stroke="#4E4B66" stroke-width="0.6158" stroke-miterlimit="10"/>
<path d="M62.2 21H56V22.6H62.2V21Z" fill="#4E4B66" stroke="#4E4B66" stroke-width="0.6158" stroke-miterlimit="10"/>
<path d="M62.2 21H56V22.6H62.2V21Z" fill="#4E4B66" stroke="#4E4B66" stroke-width="0.6158" stroke-miterlimit="10"/>
<circle cx="40" cy="40" r="38.5" stroke="#F56E1E" stroke-width="3"/>
</g>
<defs>
<clipPath id="clip0_328_47727">
<rect width="80" height="80" fill="white"/>
</clipPath>
</defs>
</svg>
