<svg width="18" height="18" viewBox="0 0 18 18" fill="none" xmlns="http://www.w3.org/2000/svg">
<path d="M16.3874 8.46084C16.2556 8.45327 16.128 8.40655 16.0183 8.32565L9.00178 2.5255L1.98524 8.32565C1.92055 8.37906 1.84693 8.41793 1.76859 8.44003C1.69026 8.46212 1.60874 8.46701 1.52869 8.45442C1.44864 8.44183 1.37163 8.412 1.30205 8.36665C1.23246 8.32129 1.17167 8.26129 1.12315 8.19007C1.07463 8.11885 1.03934 8.0378 1.01927 7.95156C0.9992 7.86531 0.994751 7.77557 1.00619 7.68744C1.01762 7.59931 1.04471 7.51452 1.08591 7.43791C1.12711 7.36131 1.18162 7.29439 1.24631 7.24097L8.63195 1.14246C8.73687 1.05023 8.86715 1 9.00141 1C9.13568 1 9.26595 1.05023 9.37088 1.14246L16.7565 7.24097C16.8856 7.34999 16.9708 7.51038 16.9938 7.68773C17.0167 7.86509 16.9756 8.04528 16.8793 8.18966C16.8188 8.27 16.7437 8.33559 16.6589 8.38227C16.5741 8.42896 16.4821 8.45571 16.3874 8.46084ZM14.9844 14.9401V9.54631C14.9844 9.36662 14.9196 9.19429 14.8042 9.06723C14.6887 8.94017 14.5322 8.86879 14.369 8.86879C14.2058 8.86879 14.0492 8.94017 13.9338 9.06723C13.8184 9.19429 13.7536 9.36662 13.7536 9.54631V14.9401C13.7501 15.1258 13.6815 15.3028 13.5622 15.4341C13.4429 15.5655 13.2821 15.641 13.1135 15.6448H4.89081C4.72215 15.641 4.56138 15.5655 4.44209 15.4341C4.3228 15.3028 4.25422 15.1258 4.2507 14.9401V9.54631C4.2507 9.45734 4.23479 9.36924 4.20386 9.28704C4.17293 9.20484 4.1276 9.13015 4.07045 9.06723C4.01331 9.00432 3.94546 8.95441 3.87079 8.92036C3.79613 8.88631 3.71611 8.86879 3.63529 8.86879C3.55447 8.86879 3.47445 8.88631 3.39979 8.92036C3.32512 8.95441 3.25727 9.00432 3.20013 9.06723C3.14298 9.13015 3.09765 9.20484 3.06672 9.28704C3.03579 9.36924 3.01988 9.45734 3.01988 9.54631V14.9401C3.01978 15.2106 3.06811 15.4785 3.1621 15.7285C3.25609 15.9784 3.3939 16.2055 3.56765 16.3968C3.7414 16.5881 3.94769 16.7398 4.17472 16.8433C4.40176 16.9468 4.64509 17 4.89081 16.9999H13.0888C13.3364 17.0028 13.5821 16.9518 13.8117 16.8496C14.0412 16.7475 14.2502 16.5963 14.4264 16.4048C14.6027 16.2133 14.7427 15.9853 14.8385 15.7339C14.9342 15.4825 14.9838 15.2127 14.9844 14.9401Z" fill="#6E7191" stroke="#6E7191" stroke-width="0.75"/>
</svg>
