<svg width="16" height="16" viewBox="0 0 16 16" fill="none" xmlns="http://www.w3.org/2000/svg">
<path d="M1 6.65108C0.999957 6.35182 1.0773 6.05674 1.22578 5.78964C1.37427 5.52255 1.58974 5.29093 1.85481 5.11348L8 1L14.1452 5.11348C14.4103 5.29093 14.6257 5.52255 14.7742 5.78964C14.9227 6.05674 15 6.35182 15 6.65108V13.4094C14.9998 13.8312 14.8154 14.2357 14.4873 14.5339C14.1593 14.8322 13.7143 14.9998 13.2504 15H10.7997C10.6134 15 10.4348 14.9327 10.3031 14.813C10.1713 14.6932 10.0973 14.5308 10.0973 14.3615V10.543C10.0973 10.4583 10.0603 10.3771 9.99447 10.3172C9.92861 10.2574 9.83928 10.2237 9.74614 10.2237H6.24965C6.15651 10.2237 6.06718 10.2574 6.00132 10.3172C5.93546 10.3771 5.89846 10.4583 5.89846 10.543V14.3615C5.89846 14.5308 5.82445 14.6932 5.69273 14.813C5.56101 14.9327 5.38235 15 5.19607 15H2.74965C2.28567 14.9998 1.84075 14.8322 1.51267 14.5339C1.18458 14.2357 1.00019 13.8312 1 13.4094V6.65108Z" stroke="#6E7191" stroke-width="2" stroke-linecap="round" stroke-linejoin="round"/>
</svg>
