<svg width="80" height="80" viewBox="0 0 80 80" fill="none" xmlns="http://www.w3.org/2000/svg">
<g clip-path="url(#clip0_328_47802)">
<path d="M37.4 36.8C36.3 36.8 36.3 38.4 37.4 38.4H41.3C42.4 38.4 42.4 36.8 41.3 36.8H37.4ZM17.7 30.7C19.9 35.4 24.6 38.4 29.7 38.4H31.1C34.2 38.4 36.6 40.9 36.6 44C36.6 45.8 35.9 46.9 34.8 47.7C33.7 48.5 32.3 48.9 31.1 48.8C29.6 48.8 28.5 48.1 27.6 47C26.9 46 26.4 44.8 26.3 43.7C27.3 43.4 28.5 43.2 29.6 43.2H34.1C35.2 43.2 35.2 41.6 34.1 41.6H29.6C25.1 41.4 19.6 44.7 17.6 49.2V30.7H17.7ZM16.9 26.4C16.5 26.4 16.1 26.7 16.1 27.2V52.8C16.1 53.7 17.3 53.9 17.6 53.1L19 50.1C20.2 47.4 22.3 45.4 24.9 44.2C25.1 45.5 25.6 46.8 26.4 47.9C27.5 49.3 29.1 50.3 31.1 50.4C32.7 50.5 34.4 50 35.8 49C37.2 48 38.2 46.3 38.2 44C38.2 40 35 36.8 31.1 36.8H29.7C25.1 36.8 20.9 34.1 18.9 29.8L17.5 26.8C17.5 26.6 17.2 26.4 16.9 26.4Z" fill="#4E4B66" stroke="#4E4B66" stroke-width="0.5696" stroke-miterlimit="10"/>
<path d="M37.4 36.8C36.3 36.8 36.3 38.4 37.4 38.4H41.3C42.4 38.4 42.4 36.8 41.3 36.8H37.4ZM17.7 30.7C19.9 35.4 24.6 38.4 29.7 38.4H31.1C34.2 38.4 36.6 40.9 36.6 44C36.6 45.8 35.9 46.9 34.8 47.7C33.7 48.5 32.3 48.9 31.1 48.8C29.6 48.8 28.5 48.1 27.6 47C26.9 46 26.4 44.8 26.3 43.7C27.3 43.4 28.5 43.2 29.6 43.2H34.1C35.2 43.2 35.2 41.6 34.1 41.6H29.6C25.1 41.4 19.6 44.7 17.6 49.2V30.7H17.7ZM16.9 26.4C16.5 26.4 16.1 26.7 16.1 27.2V52.8C16.1 53.7 17.3 53.9 17.6 53.1L19 50.1C20.2 47.4 22.3 45.4 24.9 44.2C25.1 45.5 25.6 46.8 26.4 47.9C27.5 49.3 29.1 50.3 31.1 50.4C32.7 50.5 34.4 50 35.8 49C37.2 48 38.2 46.3 38.2 44C38.2 40 35 36.8 31.1 36.8H29.7C25.1 36.8 20.9 34.1 18.9 29.8L17.5 26.8C17.5 26.6 17.2 26.4 16.9 26.4Z" fill="#4E4B66" stroke="#4E4B66" stroke-width="0.5696" stroke-miterlimit="10"/>
<path d="M55.3 30.5C54.1 30.5 53 30.8 52 31.3L41.6 36.9C41.2 37.1 41.1 37.6 41.3 38C41.5 38.4 42 38.5 42.4 38.3L52.8 32.7C53.6 32.3 54.5 32 55.4 32C57.7 32 59.4 32.9 60.6 34.3C61.8 35.7 62.4 37.5 62.5 39.2V40.8C62.5 44.8 59.3 47.9 55.4 47.9C54.5 47.9 53.6 47.5 52.7 47.2L42.3 41.6C41.9 41.4 41.4 41.5 41.2 41.9C41 42.3 41.1 42.8 41.5 43L51.9 48.6H52C52.8 48.9 53.9 49.4 55.2 49.4C60 49.4 63.9 45.5 63.9 40.7V39.1C63.9 37 63.1 34.8 61.6 33.2C60.2 31.6 58 30.5 55.3 30.5Z" fill="#4E4B66" stroke="#4E4B66" stroke-width="0.5696" stroke-miterlimit="10"/>
<path d="M55.3 30.5C54.1 30.5 53 30.8 52 31.3L41.6 36.9C41.2 37.1 41.1 37.6 41.3 38C41.5 38.4 42 38.5 42.4 38.3L52.8 32.7C53.6 32.3 54.5 32 55.4 32C57.7 32 59.4 32.9 60.6 34.3C61.8 35.7 62.4 37.5 62.5 39.2V40.8C62.5 44.8 59.3 47.9 55.4 47.9C54.5 47.9 53.6 47.5 52.7 47.2L42.3 41.6C41.9 41.4 41.4 41.5 41.2 41.9C41 42.3 41.1 42.8 41.5 43L51.9 48.6H52C52.8 48.9 53.9 49.4 55.2 49.4C60 49.4 63.9 45.5 63.9 40.7V39.1C63.9 37 63.1 34.8 61.6 33.2C60.2 31.6 58 30.5 55.3 30.5Z" fill="#4E4B66" stroke="#4E4B66" stroke-width="0.5696" stroke-miterlimit="10"/>
<path d="M20.4 32.9H19.3V47H20.4V32.9Z" fill="#4E4B66" stroke="#4E4B66" stroke-width="0.5696" stroke-miterlimit="10"/>
<path d="M20.4 32.9H19.3V47H20.4V32.9Z" fill="#4E4B66" stroke="#4E4B66" stroke-width="0.5696" stroke-miterlimit="10"/>
<path d="M42.2 37.8H41.1V42.2001H42.2V37.8Z" fill="#4E4B66" stroke="#4E4B66" stroke-width="0.5696" stroke-miterlimit="10"/>
<path d="M42.2 37.8H41.1V42.2001H42.2V37.8Z" fill="#4E4B66" stroke="#4E4B66" stroke-width="0.5696" stroke-miterlimit="10"/>
<path d="M41.4 41.9H37.9V43H41.4V41.9Z" fill="#4E4B66" stroke="#4E4B66" stroke-width="0.5696" stroke-miterlimit="10"/>
<path d="M41.4 41.9H37.9V43H41.4V41.9Z" fill="#4E4B66" stroke="#4E4B66" stroke-width="0.5696" stroke-miterlimit="10"/>
<path d="M30.2 42.1C29.5 42.7 29.2 43.6 29.5 44.4C29.8 45.2 30.6 45.8 31.5 45.8C32.4 45.8 33.2 45.2 33.5 44.4C33.8 43.6 33.5 42.6 32.8 42.1L32 43.2C32.2 43.4 32.3 43.7 32.2 44C32.1 44.3 31.8 44.5 31.5 44.5C31.2 44.5 30.9 44.3 30.8 44C30.7 43.7 30.8 43.4 31 43.2L30.2 42.1Z" fill="#4E4B66" stroke="#4E4B66" stroke-width="0.5696" stroke-miterlimit="10"/>
<path d="M30.2 42.1C29.5 42.7 29.2 43.6 29.5 44.4C29.8 45.2 30.6 45.8 31.5 45.8C32.4 45.8 33.2 45.2 33.5 44.4C33.8 43.6 33.5 42.6 32.8 42.1L32 43.2C32.2 43.4 32.3 43.7 32.2 44C32.1 44.3 31.8 44.5 31.5 44.5C31.2 44.5 30.9 44.3 30.8 44C30.7 43.7 30.8 43.4 31 43.2L30.2 42.1Z" fill="#4E4B66" stroke="#4E4B66" stroke-width="0.5696" stroke-miterlimit="10"/>
<circle cx="40" cy="40" r="38.5" stroke="#F56E1E" stroke-width="3"/>
</g>
<defs>
<clipPath id="clip0_328_47802">
<rect width="80" height="80" fill="white"/>
</clipPath>
</defs>
</svg>
