<svg width="16" height="16" viewBox="0 0 16 16" fill="none" xmlns="http://www.w3.org/2000/svg">
<path d="M8 0C3.58065 0 0 3.6129 0 8C0 12.4194 3.58065 16 8 16C12.3871 16 16 12.4194 16 8C16 3.6129 12.3871 0 8 0ZM8 14.4516C4.41935 14.4516 1.54839 11.5806 1.54839 8C1.54839 4.45161 4.41935 1.54839 8 1.54839C11.5484 1.54839 14.4516 4.45161 14.4516 8C14.4516 11.5806 11.5484 14.4516 8 14.4516ZM8 3.54839C7.22581 3.54839 6.64516 4.16129 6.64516 4.90323C6.64516 5.67742 7.22581 6.25806 8 6.25806C8.74194 6.25806 9.35484 5.67742 9.35484 4.90323C9.35484 4.16129 8.74194 3.54839 8 3.54839ZM9.80645 11.7419V10.9677C9.80645 10.7742 9.6129 10.5806 9.41935 10.5806H9.03226V7.35484C9.03226 7.16129 8.83871 6.96774 8.64516 6.96774H6.58065C6.35484 6.96774 6.19355 7.16129 6.19355 7.35484V8.12903C6.19355 8.35484 6.35484 8.51613 6.58065 8.51613H6.96774V10.5806H6.58065C6.35484 10.5806 6.19355 10.7742 6.19355 10.9677V11.7419C6.19355 11.9677 6.35484 12.129 6.58065 12.129H9.41935C9.6129 12.129 9.80645 11.9677 9.80645 11.7419Z" fill="#6E7191"/>
</svg>
