<svg width="80" height="80" viewBox="0 0 80 80" fill="none" xmlns="http://www.w3.org/2000/svg">
<g clip-path="url(#clip0_328_47817)">
<path d="M38.2 58.1H41.1V58.6C41.1 58.8 41.1 58.7 41 58.8C40.9 58.9 40.5 59.1 39.7 59.1C38.9 59.1 38.5 58.9 38.4 58.8C38.3 58.7 38.3 58.8 38.3 58.6L38.2 58.1ZM36.3 54.2H43V55.2H42.5H36.6H36.3V54.2ZM36.3 50.3H43V51.3H36.3V50.3ZM54.9 38.5C54.1 38.5 53.5 39.2 53.5 40.1C53.5 40.9 54.2 41.5 55 41.5H59.8C60.6 41.5 61.3 40.9 61.3 40.1C61.3 39.3 60.7 38.6 59.9 38.6H55.1C55 38.5 54.9 38.5 54.9 38.5ZM19.3 38.6C18.5 38.6 17.9 39.3 17.9 40.2C17.9 41 18.6 41.6 19.4 41.6H24.2C25 41.6 25.6 41 25.7 40.2C25.7 39.4 25.1 38.7 24.3 38.7H19.5C19.4 38.6 19.3 38.6 19.3 38.6ZM39.6 30.7C44.7 30.7 48.7 34.8 48.8 39.5C48.8 43.1 46.1 45.9 44.1 47.3H35.3C33.2 45.9 30.5 43.1 30.5 39.5C30.5 34.8 34.5 30.8 39.6 30.7ZM39.6 27.8C33 27.8 27.6 33.1 27.6 39.5C27.6 44.3 30.8 47.8 33.4 49.6V56.6C33.4 57.4 34 58.1 34.8 58.1H35.3V58.6C35.3 59.5 35.8 60.5 36.6 61.1C37.4 61.7 38.5 62 39.7 62C40.9 62 42 61.7 42.8 61.1C43.6 60.5 44.1 59.5 44.1 58.5V58H44.6C45.4 58 46 57.3 46 56.5V49.5C48.6 47.7 51.8 44.2 51.8 39.4C51.6 33.1 46.2 27.8 39.6 27.8ZM54.3 23.4C54 23.4 53.7 23.6 53.4 23.8L49.6 27.7C49 28.2 49 29.2 49.5 29.8C50 30.4 50.9 30.5 51.5 29.9L51.6 29.8L55.4 25.9C56 25.3 56 24.4 55.4 23.8C55.2 23.5 54.8 23.3 54.3 23.4ZM24.5 23.4C23.7 23.5 23.1 24.2 23.2 25C23.2 25.3 23.4 25.7 23.6 25.9L27.5 29.8C28 30.4 28.9 30.5 29.5 29.9C30.1 29.4 30.2 28.4 29.6 27.8L29.5 27.7L25.6 23.8C25.4 23.6 24.9 23.4 24.5 23.4ZM39.6 18C38.8 18 38.2 18.7 38.2 19.5V24.4C38.2 25.2 38.8 25.9 39.6 25.9C40.4 25.9 41 25.3 41.1 24.5V19.6C41 18.7 40.4 18 39.6 18Z" fill="#4E4B66"/>
<circle cx="40" cy="40" r="38.5" stroke="#F56E1E" stroke-width="3"/>
</g>
<defs>
<clipPath id="clip0_328_47817">
<rect width="80" height="80" fill="white"/>
</clipPath>
</defs>
</svg>
