<svg width="16" height="16" viewBox="0 0 16 16" fill="none" xmlns="http://www.w3.org/2000/svg">
<path d="M15.2471 0H0.752941C0.337103 0 0 0.583071 0 1.30233V5.69767C0 6.41693 0.337103 7 0.752941 7H15.2471C15.6629 7 16 6.41693 16 5.69767V1.30233C16 0.583071 15.6629 0 15.2471 0Z" fill="#6E7191"/>
<path d="M15.2471 9H0.752941C0.337103 9 0 9.58307 0 10.3023V14.6977C0 15.4169 0.337103 16 0.752941 16H15.2471C15.6629 16 16 15.4169 16 14.6977V10.3023C16 9.58307 15.6629 9 15.2471 9Z" fill="#6E7191"/>
</svg>
