<svg width="28" height="29" viewBox="0 0 28 29" fill="none" xmlns="http://www.w3.org/2000/svg">
<path d="M14 19.5C16.7614 19.5 19 17.2614 19 14.5C19 11.7386 16.7614 9.5 14 9.5C11.2386 9.5 9 11.7386 9 14.5C9 17.2614 11.2386 19.5 14 19.5Z" stroke="#6E7191" stroke-width="2"/>
<path d="M11.9922 2.63747C12.2001 2.29058 12.4943 2.00347 12.8462 1.80412C13.1981 1.60478 13.5956 1.5 14 1.5C14.4044 1.5 14.8019 1.60478 15.1538 1.80412C15.5057 2.00347 15.7999 2.29058 16.0078 2.63747L16.8341 4.01619C17.0922 4.44663 17.4817 4.78273 17.9453 4.97492C18.409 5.16711 18.9221 5.20521 19.409 5.08359L20.9679 4.69268C21.3602 4.59443 21.7713 4.59947 22.161 4.70734C22.5508 4.8152 22.9059 5.02219 23.1919 5.30814C23.4778 5.59409 23.6848 5.94924 23.7927 6.33899C23.9005 6.72874 23.9056 7.13978 23.8073 7.53206L23.4164 9.09102C23.2948 9.57793 23.3329 10.091 23.5251 10.5547C23.7173 11.0183 24.0534 11.4078 24.4838 11.6659L25.8625 12.4922C26.2094 12.7001 26.4965 12.9943 26.6959 13.3462C26.8952 13.6981 27 14.0956 27 14.5C27 14.9044 26.8952 15.3019 26.6959 15.6538C26.4965 16.0057 26.2094 16.2999 25.8625 16.5078L24.4838 17.3341C24.0534 17.5922 23.7173 17.9817 23.5251 18.4454C23.3329 18.909 23.2948 19.4221 23.4164 19.909L23.8073 21.4679C23.9056 21.8602 23.9005 22.2713 23.7927 22.661C23.6848 23.0508 23.4778 23.4059 23.1919 23.6919C22.9059 23.9778 22.5508 24.1848 22.161 24.2927C21.7713 24.4005 21.3602 24.4056 20.9679 24.3073L19.409 23.9164C18.9221 23.7948 18.409 23.8329 17.9453 24.0251C17.4817 24.2173 17.0922 24.5534 16.8341 24.9838L16.0078 26.3625C15.7999 26.7094 15.5057 26.9965 15.1538 27.1959C14.8019 27.3952 14.4044 27.5 14 27.5C13.5956 27.5 13.1981 27.3952 12.8462 27.1959C12.4943 26.9965 12.2001 26.7094 11.9922 26.3625L11.1659 24.9838C10.9078 24.5534 10.5183 24.2173 10.0546 24.0251C9.59104 23.8329 9.07793 23.7948 8.59102 23.9164L7.03206 24.3073C6.63978 24.4056 6.22874 24.4005 5.83899 24.2927C5.44924 24.1848 5.09409 23.9778 4.80814 23.6919C4.52219 23.4059 4.3152 23.0508 4.20733 22.661C4.09947 22.2713 4.09442 21.8602 4.19268 21.4679L4.58359 19.909C4.70521 19.4221 4.66711 18.909 4.47492 18.4454C4.28273 17.9817 3.94663 17.5922 3.51619 17.3341L2.13747 16.5078C1.79058 16.2999 1.50347 16.0057 1.30412 15.6538C1.10478 15.3019 1 14.9044 1 14.5C1 14.0956 1.10478 13.6981 1.30412 13.3462C1.50347 12.9943 1.79058 12.7001 2.13747 12.4922L3.51619 11.6659C3.94663 11.4078 4.28273 11.0183 4.47492 10.5547C4.66711 10.091 4.70521 9.57793 4.58359 9.09102L4.19151 7.53206C4.09325 7.13978 4.0983 6.72874 4.20616 6.33899C4.31402 5.94924 4.52102 5.59409 4.80697 5.30814C5.09292 5.02219 5.44807 4.8152 5.83782 4.70734C6.22757 4.59947 6.63861 4.59443 7.03089 4.69268L8.58985 5.08359C9.07676 5.20521 9.58987 5.16711 10.0535 4.97492C10.5171 4.78273 10.9067 4.44663 11.1647 4.01619L11.9922 2.63747Z" stroke="#6E7191" stroke-width="2"/>
</svg>
