<svg width="94" height="94" viewBox="0 0 94 94" fill="none" xmlns="http://www.w3.org/2000/svg">
<g id="Group 173">
<path id="&#208;&#154;&#208;&#190;&#208;&#189;&#209;&#130;&#209;&#131;&#209;&#128; 1566" d="M47 92C55.9002 92 64.6004 89.3608 72.0007 84.4162C79.4009 79.4715 85.1686 72.4435 88.5746 64.2208C91.9805 55.9981 92.8717 46.9501 91.1353 38.221C89.399 29.4918 85.1132 21.4736 78.8198 15.1802C72.5264 8.88685 64.5082 4.60102 55.7791 2.86468C47.0499 1.12835 38.0019 2.0195 29.7792 5.42544C21.5566 8.83138 14.5285 14.5991 9.58387 21.9994C4.6392 29.3996 2 38.0999 2 47C2 58.9348 6.74106 70.3807 15.1802 78.8198C23.6193 87.259 35.0653 92 47 92V92Z" stroke="#F56E1E" stroke-width="3"/>
<path id="&#208;&#154;&#208;&#190;&#208;&#189;&#209;&#130;&#209;&#131;&#209;&#128; 1567" d="M73.3401 58.463L59.0251 31.572C58.5893 30.755 57.9581 30.0586 57.1877 29.5449C56.4174 29.0312 55.5318 28.7162 54.6101 28.628L44.1101 27.628C43.7607 25.9895 43.1738 24.4108 42.3681 22.942C41.0876 20.4046 39.176 18.2393 36.8171 16.654C34.2731 15.117 31.7321 14.854 29.7261 15.92C27.6511 16.988 26.5141 19.264 26.3791 22.208C26.3922 25.0562 27.1048 27.8576 28.4541 30.366C29.2246 31.8669 30.2175 33.2427 31.3991 34.447L26.3141 43.679C25.8705 44.489 25.6379 45.3976 25.6379 46.321C25.6379 47.2445 25.8705 48.1531 26.3141 48.963L40.5611 75.787C41.0422 76.6803 41.7567 77.4263 42.6285 77.9454C43.5002 78.4646 44.4965 78.7375 45.5111 78.735C46.4234 78.7352 47.321 78.5055 48.1211 78.067L71.0661 65.888C72.3491 65.2019 73.3084 64.0357 73.7343 62.6444C74.1602 61.2532 74.0181 59.7499 73.3391 58.463M30.5291 22.34C30.5951 21.002 30.9951 19.931 31.6661 19.597C32.1577 19.4533 32.6772 19.4328 33.1786 19.5375C33.68 19.6421 34.148 19.8686 34.5411 20.197C36.2781 21.385 37.6826 22.9974 38.6211 24.881C39.0228 25.631 39.3575 26.4151 39.6211 27.224L39.1521 27.158C38.0681 27.063 36.9799 27.2842 36.019 27.7948C35.0581 28.3054 34.2659 29.0835 33.7381 30.035L33.5381 30.435C33.0242 29.7521 32.5546 29.0369 32.1321 28.294C31.1244 26.4682 30.5754 24.425 30.5321 22.34M69.0571 62.276L46.1151 74.449C45.8025 74.6072 45.4412 74.64 45.1053 74.5405C44.7693 74.441 44.4841 74.2169 44.3081 73.914L29.9941 47.023C29.8947 46.8263 29.843 46.6089 29.843 46.3885C29.843 46.1681 29.8947 45.9508 29.9941 45.754L34.7421 37.054C35.8915 37.6863 37.1774 38.0295 38.4891 38.054C38.8237 38.0649 39.1587 38.0428 39.4891 37.988C39.7574 37.9414 40.0139 37.842 40.2436 37.6956C40.4733 37.5492 40.6716 37.3587 40.8272 37.1351C40.9828 36.9116 41.0925 36.6594 41.15 36.3931C41.2075 36.1269 41.2116 35.8519 41.1621 35.584C41.1217 35.3126 41.0263 35.0523 40.8816 34.8192C40.737 34.5861 40.5461 34.385 40.3208 34.2284C40.0955 34.0718 39.8406 33.9629 39.5717 33.9085C39.3027 33.8541 39.0255 33.8553 38.7571 33.912C38.0557 33.9631 37.3553 33.8006 36.7481 33.446L37.4191 32.174C37.5301 31.9512 37.7014 31.764 37.9135 31.6337C38.1257 31.5034 38.3701 31.4352 38.6191 31.437H38.7541L54.2051 32.837C54.4297 32.8646 54.6444 32.946 54.8309 33.0743C55.0173 33.2026 55.17 33.374 55.2761 33.574L69.5931 60.402C69.762 60.7231 69.8006 61.0969 69.701 61.4458C69.6013 61.7946 69.3711 62.0916 69.0581 62.275" fill="#4E4B66"/>
<path id="&#208;&#154;&#208;&#190;&#208;&#189;&#209;&#130;&#209;&#131;&#209;&#128; 1568" d="M52.119 62.097L48.947 55.872L53.413 53.599C57.196 51.671 57.972 47.999 56.42 44.953C54.853 41.88 51.471 40.364 47.657 42.304L39.462 46.478L48.39 63.998L52.119 62.097ZM51.241 50.568L47.271 52.589L44.866 47.861L48.833 45.84C49.145 45.6413 49.4953 45.5104 49.8611 45.456C50.2269 45.4016 50.6001 45.4248 50.9564 45.5242C51.3126 45.6235 51.644 45.7967 51.9289 46.0325C52.2138 46.2684 52.4459 46.5615 52.61 46.893C52.7794 47.2211 52.8782 47.581 52.9004 47.9496C52.9225 48.3181 52.8673 48.6873 52.7384 49.0333C52.6095 49.3793 52.4097 49.6945 52.1519 49.9588C51.894 50.2231 51.5838 50.4306 51.241 50.568Z" fill="#4E4B66"/>
<path id="&#208;&#154;&#208;&#190;&#208;&#189;&#209;&#130;&#209;&#131;&#209;&#128; 1570" d="M42.886 61.448L44.068 63.767L56.725 57.317L55.543 54.998L42.886 61.448Z" fill="#4E4B66"/>
<path id="&#208;&#154;&#208;&#190;&#208;&#189;&#209;&#130;&#209;&#131;&#209;&#128; 1571" d="M48.027 63.344L49.573 66.371L53.317 64.471L51.771 61.437L48.027 63.344Z" fill="#2B2E34"/>
</g>
</svg>
