<svg width="80" height="80" viewBox="0 0 80 80" fill="none" xmlns="http://www.w3.org/2000/svg">
<g clip-path="url(#clip0_328_47820)">
<path d="M56 30.3L49.7 24L50.9 22.8L57.2 29.1L56 30.3ZM50.7999 32.5L47.4 29.1L50 26.5L53.4 29.9L50.7999 32.5ZM52.5999 36.4C52.7999 36.6 53 37 53 37.3C53 38 52.4 38.6 51.7 38.6C51.2999 38.6 51 38.5 50.7 38.2L49.5999 37.1L51.5 35.2L52.5999 36.4ZM44.2 42L38 35.8L42.0999 31.7L48.4 38L44.2 42ZM20.5 61.4C19.5 61.3 18.7 60.5 18.6 59.5L25.2 52.9L27.1 54.8L20.5 61.4ZM35.7999 38L37 36.8L43.2999 43.1L42 44.2L35.7999 38ZM33.5999 40.1L34.7999 38.9L41.0999 45.2L39.9 46.4L33.5999 40.1ZM31.4 42.3L32.5999 41.1L38.9 47.4L37.7 48.6L31.4 42.3ZM26.2 47.5L30.2999 43.4L36.5999 49.7L32.5 53.8L26.2 47.5ZM25.9 51.6V49.3L30.7 54.1H28.4L25.9 51.6ZM42.7 27C43.1 27 43.3999 27.1 43.5999 27.4L44.7 28.5L42.7999 30.4L41.7 29.3C41.5 29.1 41.2999 28.7 41.2999 28.4C41.2999 27.6 41.9 27 42.7 27ZM45.7 33.3L43.7999 31.4L45.7 29.5L47.5999 31.4L45.7 33.3ZM50.5 34.3L48.5999 36.2L46.7 34.3L48.5999 32.4L50.5 34.3ZM58.9 19.2L60.7999 21.1L56 25.9L54.0999 24L58.9 19.2ZM62.9 21.1L58.9 17.1L53 23L50.7999 20.8L47.5999 24L49.0999 25.5L46.5 28.1L44.7 26.3C44.2 25.8 43.5 25.5 42.7 25.5C41.2 25.5 39.9 26.8 39.9 28.3C39.9 29 40.2 29.8 40.7 30.3L41 30.6L24.5 47.2V51.6L17.2 58.9V59.2C17.2 61.2 18.8 62.9 20.9 62.9H21.2L28.5 55.6H32.9L49.4 39L49.7 39.3C50.2 39.8 50.9 40.1 51.7 40.1C53.2 40.1 54.5 38.8 54.5 37.3C54.5 36.6 54.2 35.8 53.7 35.3L51.9 33.5L54.5 30.9L56 32.4L59.2 29.2L57 27L62.9 21.1Z" fill="#4E4B66" stroke="#4E4B66" stroke-width="0.5102" stroke-miterlimit="10"/>
<path d="M56 30.3L49.7 24L50.9 22.8L57.2 29.1L56 30.3ZM50.7999 32.5L47.4 29.1L50 26.5L53.4 29.9L50.7999 32.5ZM52.5999 36.4C52.7999 36.6 53 37 53 37.3C53 38 52.4 38.6 51.7 38.6C51.2999 38.6 51 38.5 50.7 38.2L49.5999 37.1L51.5 35.2L52.5999 36.4ZM44.2 42L38 35.8L42.0999 31.7L48.4 38L44.2 42ZM20.5 61.4C19.5 61.3 18.7 60.5 18.6 59.5L25.2 52.9L27.1 54.8L20.5 61.4ZM35.7999 38L37 36.8L43.2999 43.1L42 44.2L35.7999 38ZM33.5999 40.1L34.7999 38.9L41.0999 45.2L39.9 46.4L33.5999 40.1ZM31.4 42.3L32.5999 41.1L38.9 47.4L37.7 48.6L31.4 42.3ZM26.2 47.5L30.2999 43.4L36.5999 49.7L32.5 53.8L26.2 47.5ZM25.9 51.6V49.3L30.7 54.1H28.4L25.9 51.6ZM42.7 27C43.1 27 43.3999 27.1 43.5999 27.4L44.7 28.5L42.7999 30.4L41.7 29.3C41.5 29.1 41.2999 28.7 41.2999 28.4C41.2999 27.6 41.9 27 42.7 27ZM45.7 33.3L43.7999 31.4L45.7 29.5L47.5999 31.4L45.7 33.3ZM50.5 34.3L48.5999 36.2L46.7 34.3L48.5999 32.4L50.5 34.3ZM58.9 19.2L60.7999 21.1L56 25.9L54.0999 24L58.9 19.2ZM62.9 21.1L58.9 17.1L53 23L50.7999 20.8L47.5999 24L49.0999 25.5L46.5 28.1L44.7 26.3C44.2 25.8 43.5 25.5 42.7 25.5C41.2 25.5 39.9 26.8 39.9 28.3C39.9 29 40.2 29.8 40.7 30.3L41 30.6L24.5 47.2V51.6L17.2 58.9V59.2C17.2 61.2 18.8 62.9 20.9 62.9H21.2L28.5 55.6H32.9L49.4 39L49.7 39.3C50.2 39.8 50.9 40.1 51.7 40.1C53.2 40.1 54.5 38.8 54.5 37.3C54.5 36.6 54.2 35.8 53.7 35.3L51.9 33.5L54.5 30.9L56 32.4L59.2 29.2L57 27L62.9 21.1Z" fill="#4E4B66" stroke="#4E4B66" stroke-width="0.5102" stroke-miterlimit="10"/>
<circle cx="40" cy="40" r="38.5" stroke="#F56E1E" stroke-width="3"/>
</g>
<defs>
<clipPath id="clip0_328_47820">
<rect width="80" height="80" fill="white"/>
</clipPath>
</defs>
</svg>
