<svg width="16" height="16" viewBox="0 0 16 16" fill="none" xmlns="http://www.w3.org/2000/svg">
<path fill-rule="evenodd" clip-rule="evenodd" d="M5.48053 4.22415H6.31988C6.33117 4.22337 6.3425 4.2251 6.35309 4.22922C6.36369 4.23334 6.37331 4.23977 6.38132 4.24806C6.38932 4.25635 6.39551 4.26632 6.39949 4.2773C6.40347 4.28827 6.40514 4.30001 6.40438 4.31171V5.1803C6.40512 5.19204 6.40345 5.20382 6.39948 5.21485C6.39551 5.22587 6.38933 5.2359 6.38135 5.24428C6.37336 5.25265 6.36376 5.25917 6.35317 5.26342C6.34258 5.26766 6.33122 5.26954 6.31988 5.26891H5.48053C5.46916 5.26962 5.45779 5.26781 5.44716 5.26359C5.43653 5.25938 5.42689 5.25285 5.41889 5.24446C5.41089 5.23607 5.4047 5.22601 5.40076 5.21494C5.39682 5.20388 5.39522 5.19206 5.39604 5.1803V4.31171C5.3952 4.29998 5.3968 4.28822 5.40074 4.2772C5.40469 4.26618 5.4109 4.25617 5.41892 4.24786C5.42694 4.23955 5.43659 4.23313 5.44722 4.22904C5.45786 4.22495 5.46922 4.22328 5.48053 4.22415ZM5.28234 3.71159C5.23236 3.71152 5.18285 3.72167 5.13666 3.74145C5.09046 3.76124 5.04849 3.79028 5.01315 3.8269C4.9778 3.86353 4.94977 3.90701 4.93067 3.95487C4.91158 4.00274 4.90179 4.05404 4.90186 4.10583V5.38671C4.90179 5.43847 4.91159 5.48974 4.93069 5.53757C4.94979 5.58541 4.97782 5.62886 5.01318 5.66544C5.04853 5.70202 5.09051 5.731 5.1367 5.75073C5.1829 5.77046 5.23238 5.78055 5.28234 5.78041H6.51806C6.56805 5.78062 6.61758 5.77059 6.6638 5.75088C6.71002 5.73118 6.75202 5.70219 6.78739 5.66559C6.82275 5.629 6.85079 5.58552 6.86987 5.53765C6.88895 5.48979 6.8987 5.43849 6.89857 5.38671V4.1053C6.8987 4.05349 6.88895 4.00216 6.86987 3.95427C6.8508 3.90637 6.82278 3.86285 6.78742 3.82622C6.75206 3.78958 6.71007 3.76055 6.66385 3.74078C6.61762 3.72102 6.56807 3.71092 6.51806 3.71106L5.28234 3.71159Z" fill="#6E7191"/>
<path fill-rule="evenodd" clip-rule="evenodd" d="M8.56599 4.22411H9.40431C9.41567 4.22326 9.42706 4.22493 9.43774 4.22901C9.44842 4.23309 9.45814 4.2395 9.46623 4.24779C9.47433 4.25608 9.48064 4.26606 9.48471 4.27708C9.48878 4.2881 9.49052 4.29989 9.48983 4.31166V5.03434C9.49052 5.04611 9.48878 5.0579 9.48471 5.06892C9.48064 5.07994 9.47433 5.08992 9.46623 5.09821C9.45814 5.1065 9.44842 5.1129 9.43774 5.11699C9.42706 5.12107 9.41567 5.12274 9.40431 5.12189H8.56599C8.55468 5.12276 8.54332 5.12109 8.53269 5.117C8.52205 5.11291 8.51239 5.10649 8.50437 5.09818C8.49635 5.08987 8.49016 5.07986 8.48621 5.06885C8.48226 5.05783 8.48065 5.04606 8.48149 5.03434V4.31166C8.48065 4.29994 8.48226 4.28817 8.48621 4.27715C8.49016 4.26613 8.49635 4.25613 8.50437 4.24782C8.51239 4.23951 8.52205 4.23309 8.53269 4.229C8.54332 4.2249 8.55468 4.22324 8.56599 4.22411ZM8.36779 3.71155C8.31781 3.71148 8.2683 3.72163 8.22211 3.74142C8.17591 3.7612 8.13394 3.79024 8.09859 3.82686C8.06325 3.86348 8.03522 3.90697 8.01612 3.95484C7.99703 4.0027 7.98724 4.05399 7.98731 4.10578V5.38666C7.98731 5.73155 8.26026 5.75066 8.47074 5.64878C8.79047 5.50333 9.15126 5.48761 9.48164 5.60474C9.83141 5.74906 9.98453 5.75172 9.98453 5.4636V4.10578C9.9846 4.05395 9.97478 4.00261 9.95565 3.95472C9.93652 3.90682 9.90846 3.8633 9.87306 3.82667C9.83766 3.79004 9.79563 3.76102 9.74937 3.74126C9.70312 3.72151 9.65356 3.71141 9.60353 3.71155H8.36779Z" fill="#6E7191"/>
<path fill-rule="evenodd" clip-rule="evenodd" d="M5.48134 7.42001H6.31813C6.3295 7.41929 6.34087 7.4211 6.3515 7.42532C6.36213 7.42953 6.37177 7.43606 6.37977 7.44445C6.38777 7.45284 6.39396 7.4629 6.3979 7.47397C6.40184 7.48503 6.40346 7.49685 6.40264 7.50861V8.37668C6.40346 8.38844 6.40184 8.40026 6.3979 8.41132C6.39396 8.42239 6.38777 8.43245 6.37977 8.44084C6.37177 8.44923 6.36213 8.45576 6.3515 8.45997C6.34087 8.46419 6.3295 8.46601 6.31813 8.46529H5.48031C5.46891 8.46599 5.4575 8.46417 5.44682 8.45996C5.43614 8.45575 5.42644 8.44925 5.41836 8.44088C5.41028 8.43251 5.404 8.42246 5.39994 8.4114C5.39587 8.40033 5.39412 8.3885 5.39479 8.37668V7.50861C5.39411 7.4967 5.39589 7.48477 5.40001 7.47363C5.40413 7.46248 5.4105 7.45238 5.41869 7.444C5.42688 7.43561 5.43672 7.42912 5.44752 7.42499C5.45833 7.42085 5.46985 7.41915 5.48134 7.42001ZM5.28161 6.90744C5.23163 6.90737 5.18212 6.91752 5.13593 6.93731C5.08973 6.9571 5.04776 6.98614 5.01241 7.02276C4.97707 7.05938 4.94904 7.10287 4.92994 7.15073C4.91085 7.19859 4.90106 7.24989 4.90112 7.30168V8.58202C4.90099 8.63388 4.91073 8.68526 4.92979 8.73322C4.94885 8.78117 4.97685 8.82476 5.0122 8.86148C5.04754 8.8982 5.08954 8.92733 5.13577 8.94721C5.182 8.96709 5.23156 8.97732 5.28161 8.97732H6.51735C6.56744 8.97746 6.61706 8.96733 6.66335 8.9475C6.70964 8.92767 6.75169 8.89854 6.78706 8.86179C6.82244 8.82504 6.85043 8.7814 6.86944 8.73338C6.88845 8.68536 6.89811 8.63392 6.89784 8.58202V7.29902C6.89797 7.24721 6.88823 7.19589 6.86916 7.14799C6.85008 7.1001 6.82205 7.05659 6.78669 7.01995C6.75133 6.98331 6.70934 6.95427 6.66311 6.93451C6.61689 6.91475 6.56735 6.90465 6.51735 6.90479L5.28161 6.90744Z" fill="#6E7191"/>
<path fill-rule="evenodd" clip-rule="evenodd" d="M7.98722 8.22807V8.66157C7.98695 8.70297 7.99459 8.74402 8.00971 8.78235C8.02483 8.82067 8.04713 8.85551 8.07532 8.88486C8.1035 8.91422 8.13702 8.9375 8.17393 8.95336C8.21084 8.96922 8.25042 8.97735 8.29038 8.97728H8.67702C8.80761 8.97728 8.87521 8.89876 8.76101 8.75921L8.20434 8.0795C7.97338 7.79828 7.98722 8.09489 7.98722 8.22807Z" fill="#6E7191"/>
<path fill-rule="evenodd" clip-rule="evenodd" d="M7.16468 8.85842V8.48328C7.16448 8.46768 7.16727 8.45219 7.17289 8.43771C7.17851 8.42324 7.18685 8.41006 7.19742 8.39895C7.208 8.38784 7.2206 8.37903 7.2345 8.37301C7.24839 8.36699 7.2633 8.36389 7.27836 8.36389H7.60612C7.62118 8.36389 7.63608 8.36699 7.64998 8.37301C7.66387 8.37903 7.67648 8.38784 7.68706 8.39895C7.69764 8.41006 7.70598 8.42324 7.7116 8.43771C7.71722 8.45219 7.72001 8.46768 7.7198 8.48328V8.85842C7.71987 8.87388 7.71698 8.8892 7.71129 8.9035C7.70559 8.91779 7.6972 8.93077 7.68662 8.94168C7.67605 8.95259 7.66348 8.96122 7.64966 8.96705C7.63584 8.97289 7.62105 8.97581 7.60612 8.97567H7.27836C7.26342 8.97588 7.2486 8.97301 7.23475 8.9672C7.22089 8.96139 7.2083 8.95277 7.19771 8.94184C7.18711 8.93092 7.17873 8.9179 7.17306 8.90358C7.16739 8.88925 7.16455 8.8739 7.16468 8.85842Z" fill="#6E7191"/>
<path fill-rule="evenodd" clip-rule="evenodd" d="M5.85575 6.05579C5.82564 6.05593 5.7968 6.06839 5.77551 6.09045C5.75422 6.11251 5.7422 6.14239 5.74207 6.17358V6.51477C5.74233 6.54587 5.75442 6.57561 5.7757 6.59756C5.79697 6.6195 5.82572 6.63189 5.85575 6.63203H7.1647V7.8991C7.16456 7.91461 7.16741 7.93 7.17308 7.94435C7.17874 7.95871 7.18712 7.97175 7.19771 7.98271C7.20829 7.99368 7.22088 8.00236 7.23473 8.00823C7.24859 8.0141 7.26343 8.01704 7.2784 8.0169H7.60614C7.62111 8.01704 7.63597 8.0141 7.64982 8.00823C7.66368 8.00236 7.67626 7.99368 7.68684 7.98271C7.69743 7.97175 7.70579 7.95871 7.71146 7.94435C7.71712 7.93 7.71997 7.91461 7.71984 7.8991V6.17358C7.71984 6.05314 7.62561 6.05579 7.57184 6.05579H5.85575Z" fill="#6E7191"/>
<path d="M4.51819 1.22357L10.3788 1.231C10.4332 1.23034 10.4872 1.24105 10.5375 1.26248C10.5878 1.28391 10.6335 1.31563 10.6717 1.35575C10.71 1.39586 10.74 1.44355 10.7601 1.49596C10.7801 1.54836 10.7898 1.60442 10.7885 1.66078C10.7885 3.65744 10.7808 4.59555 10.7808 6.26748C10.7871 6.36762 10.8139 6.46522 10.8595 6.55378C10.9051 6.64234 10.9683 6.71983 11.045 6.7811L12.1522 7.96382C12.1813 8.00245 12.1944 8.05145 12.1885 8.10006C12.1827 8.14867 12.1585 8.1929 12.1212 8.22301C12.084 8.25313 12.0367 8.26667 11.9897 8.26064C11.9428 8.25462 11.9001 8.22954 11.8711 8.19091C11.2849 7.55836 10.6485 6.97796 9.96858 6.45584C9.1661 5.80904 8.63248 5.92046 8.33956 6.25156C8.17266 6.46642 8.09091 6.73902 8.11088 7.01404C8.13085 7.28906 8.25106 7.54591 8.4471 7.73247L9.46825 8.9762C9.74675 9.25001 9.93823 9.60515 10.0172 9.99443C10.0215 10.3064 9.96828 10.6163 9.86052 10.9076C9.67924 11.4944 9.34841 12.0776 9.58143 12.9823C9.68385 13.2258 9.3858 13.36 9.32178 13.1027C9.2718 12.9493 9.23345 12.7921 9.20707 12.6326C9.14418 12.3215 9.1572 11.999 9.24497 11.6945C9.32947 11.4536 9.18863 11.27 8.91209 11.27L4.50795 11.2647C4.21195 11.2647 4.09826 11.0875 4.09826 10.7564L4.10543 1.65389C4.10439 1.59738 4.11435 1.54123 4.13471 1.4888C4.15507 1.43637 4.18542 1.38872 4.22394 1.34871C4.26246 1.3087 4.30838 1.27714 4.35893 1.25591C4.40949 1.23468 4.46365 1.22422 4.51819 1.22516V1.22357ZM4.51819 0C4.22037 0.00154293 3.93524 0.125208 3.72517 0.343957C3.5151 0.562706 3.39717 0.858739 3.39718 1.16732V2.8122C3.29378 2.83342 3.19535 2.87522 3.10733 2.93529C2.9836 3.02025 2.88062 3.13383 2.8065 3.26707C2.73238 3.40031 2.68916 3.54957 2.68023 3.70307C2.66739 3.83908 2.69152 3.9761 2.74989 4.09865C2.80826 4.2212 2.89854 4.32439 3.01054 4.39657L3.39615 4.62898V4.86085L3.17646 4.72979C3.0601 4.66593 2.92901 4.6365 2.79757 4.64474C2.66613 4.65297 2.53942 4.69856 2.43134 4.77648C2.30426 4.85857 2.1987 4.97189 2.12402 5.10637C2.04934 5.24086 2.00784 5.39237 2.00321 5.54745C1.99065 5.6836 2.01508 5.82068 2.07371 5.94322C2.13235 6.06576 2.22287 6.16888 2.33506 6.24095L3.3936 6.87767V7.10052C3.31502 7.11923 3.24017 7.15191 3.17236 7.1971C3.06537 7.27289 2.97614 7.37258 2.91127 7.48884C2.84639 7.60509 2.80752 7.73495 2.7975 7.86884C2.78454 7.98357 2.80302 8.09977 2.85084 8.20412C2.89866 8.30847 2.97389 8.39676 3.06789 8.45887L3.39206 8.65254L3.38847 11.9741C3.38847 12.2826 3.50633 12.5786 3.71628 12.7973C3.92624 13.016 4.21123 13.1398 4.50897 13.1414L7.62772 13.1462L8.14649 13.9755C8.2103 14.0972 8.31604 14.1893 8.44259 14.2337C8.56913 14.2781 8.70717 14.2713 8.82914 14.2148L12.8584 12.6453C13.4479 12.4156 13.2881 11.9264 13.2999 11.5008L13.4054 8.1161C13.4219 7.67152 13.2958 7.23379 13.0469 6.8713L11.4931 4.56159L11.4983 1.17953C11.4973 0.871771 11.3791 0.576849 11.1694 0.358932C10.9596 0.141014 10.6753 0.0177345 10.3783 0.0159174L4.51819 0Z" fill="#6E7191"/>
<path d="M13.8412 13.0284C14.0553 13.6232 14.0394 13.9655 13.8745 14.2276C13.5862 14.5619 13.21 14.8016 12.7919 14.9173L10.6236 15.7631C10.2358 15.9618 9.80026 16.038 9.37102 15.9823C9.07963 15.8974 8.85584 15.6475 8.63308 15.0558C8.57316 14.8967 8.51785 14.7237 8.83126 14.6016L13.3378 12.8469C13.7106 12.701 13.7875 12.8782 13.8417 13.0273L13.8412 13.0284Z" fill="#6E7191"/>
<path fill-rule="evenodd" clip-rule="evenodd" d="M7.1648 4.20765V3.83146C7.16466 3.81592 7.1675 3.80052 7.17316 3.78613C7.17882 3.77175 7.18718 3.75868 7.19776 3.74767C7.20834 3.73666 7.22093 3.72794 7.23478 3.72201C7.24864 3.71608 7.26349 3.71307 7.27848 3.71314H7.60624C7.62123 3.71307 7.63608 3.71608 7.64994 3.72201C7.66379 3.72794 7.67638 3.73666 7.68696 3.74767C7.69754 3.75868 7.7059 3.77175 7.71156 3.78613C7.71722 3.80052 7.72006 3.81592 7.71992 3.83146V4.20765C7.71992 4.23889 7.70795 4.26886 7.68663 4.29095C7.66531 4.31304 7.63639 4.32545 7.60624 4.32545H7.27848C7.26355 4.32545 7.24876 4.3224 7.23497 4.31648C7.22118 4.31056 7.20864 4.30189 7.19809 4.29095C7.18753 4.28001 7.17916 4.26702 7.17344 4.25273C7.16773 4.23844 7.1648 4.22312 7.1648 4.20765Z" fill="#6E7191"/>
<path fill-rule="evenodd" clip-rule="evenodd" d="M7.1648 5.37766V5.00252C7.16466 4.98704 7.16751 4.97169 7.17318 4.95736C7.17885 4.94304 7.18723 4.93002 7.19782 4.9191C7.20841 4.90818 7.22101 4.89955 7.23486 4.89374C7.24871 4.88793 7.26354 4.88505 7.27848 4.88526H7.60624C7.62116 4.88512 7.63596 4.88806 7.64978 4.8939C7.6636 4.89973 7.67616 4.90835 7.68674 4.91926C7.69732 4.93017 7.70571 4.94315 7.7114 4.95744C7.7171 4.97174 7.71999 4.98706 7.71992 5.00252V5.37766C7.72005 5.39322 7.71721 5.40865 7.71156 5.42307C7.70591 5.43748 7.69756 5.45059 7.68699 5.46164C7.67642 5.4727 7.66384 5.48146 7.64998 5.48745C7.63612 5.49343 7.62126 5.49652 7.60624 5.49652H7.27848C7.26346 5.49652 7.2486 5.49343 7.23474 5.48745C7.22088 5.48146 7.2083 5.4727 7.19773 5.46164C7.18716 5.45059 7.17881 5.43748 7.17316 5.42307C7.16751 5.40865 7.16466 5.39322 7.1648 5.37766Z" fill="#6E7191"/>
<path fill-rule="evenodd" clip-rule="evenodd" d="M4.90186 6.53216V6.15543C4.90186 6.12423 4.91375 6.09429 4.93494 6.07213C4.95614 6.04997 4.98493 6.03739 5.01504 6.03711H5.34433C5.37448 6.03739 5.40332 6.04996 5.42459 6.0721C5.44587 6.09425 5.45787 6.12418 5.45801 6.15543V6.53216C5.45801 6.5634 5.44604 6.59337 5.42472 6.61546C5.4034 6.63755 5.37448 6.64995 5.34433 6.64995H5.01504C5.00013 6.64995 4.98537 6.6469 4.97161 6.64098C4.95784 6.63505 4.94535 6.62637 4.93483 6.61542C4.92432 6.60448 4.91598 6.59149 4.91033 6.5772C4.90467 6.56291 4.90179 6.5476 4.90186 6.53216Z" fill="#6E7191"/>
</svg>
