<svg width="17" height="17" viewBox="0 0 17 17" fill="none" xmlns="http://www.w3.org/2000/svg">
<path d="M7.31706 13.6261C8.56486 13.6261 9.78464 13.256 10.8221 12.5628C11.8597 11.8696 12.6683 10.8842 13.1458 9.73141C13.6233 8.57859 13.7483 7.31006 13.5048 6.08623C13.2614 4.86241 12.6605 3.73825 11.7782 2.85592C10.8959 1.97359 9.77171 1.37272 8.54788 1.12929C7.32405 0.885851 6.05553 1.01079 4.90271 1.4883C3.74989 1.96582 2.76456 2.77446 2.07131 3.81197C1.37807 4.84948 1.00806 6.06926 1.00806 7.31706C1.00806 8.99031 1.67275 10.595 2.85592 11.7782C4.03909 12.9614 5.64381 13.6261 7.31706 13.6261V13.6261Z" stroke="#6E7191" stroke-width="2" stroke-linecap="round" stroke-linejoin="round"/>
<path d="M15.029 15.029L11.851 11.851" stroke="#6E7191" stroke-width="2" stroke-linecap="round" stroke-linejoin="round"/>
</svg>
