<svg width="25" height="25" viewBox="0 0 25 25" fill="none" xmlns="http://www.w3.org/2000/svg">
<g id="icon / system">
<path id="&#208;&#154;&#208;&#190;&#208;&#189;&#209;&#130;&#209;&#131;&#209;&#128; 1" d="M10.9755 20.439C12.8472 20.439 14.6768 19.8839 16.2331 18.8441C17.7894 17.8042 19.0023 16.3262 19.7186 14.597C20.4349 12.8678 20.6223 10.965 20.2571 9.12923C19.892 7.29349 18.9907 5.60726 17.6672 4.28376C16.3437 2.96027 14.6574 2.05896 12.8217 1.69381C10.986 1.32865 9.08317 1.51606 7.35394 2.23233C5.62471 2.9486 4.14671 4.16156 3.10685 5.71783C2.06699 7.27409 1.51196 9.10376 1.51196 10.9755C1.51196 13.4853 2.50901 15.8924 4.28376 17.6672C6.05851 19.4419 8.46559 20.439 10.9755 20.439V20.439Z" stroke="#F56E1E" stroke-width="3" stroke-linecap="round" stroke-linejoin="round"/>
<path id="&#208;&#154;&#208;&#190;&#208;&#189;&#209;&#130;&#209;&#131;&#209;&#128; 2" d="M22.5435 22.5436L17.7765 17.7766" stroke="#F56E1E" stroke-width="3" stroke-linecap="round" stroke-linejoin="round"/>
</g>
</svg>
