<svg width="94" height="94" viewBox="0 0 94 94" fill="none" xmlns="http://www.w3.org/2000/svg">
<g id="Group 172">
<path id="&#208;&#154;&#208;&#190;&#208;&#189;&#209;&#130;&#209;&#131;&#209;&#128; 1566" d="M47 92C55.9002 92 64.6004 89.3608 72.0007 84.4162C79.4009 79.4715 85.1686 72.4435 88.5746 64.2208C91.9805 55.9981 92.8717 46.9501 91.1353 38.221C89.399 29.4918 85.1132 21.4736 78.8198 15.1802C72.5264 8.88685 64.5082 4.60102 55.7791 2.86468C47.0499 1.12835 38.0019 2.0195 29.7792 5.42544C21.5566 8.83138 14.5285 14.5991 9.58387 21.9994C4.6392 29.3996 2 38.0999 2 47C2 58.9348 6.74106 70.3807 15.1802 78.8198C23.6193 87.259 35.0653 92 47 92V92Z" stroke="#F56E1E" stroke-width="3"/>
<path id="&#208;&#154;&#208;&#190;&#208;&#189;&#209;&#130;&#209;&#131;&#209;&#128; 1816" d="M72.014 34.983L71.128 30.545L66.466 30.71C64.634 30.713 55.481 30.383 51.375 23.783L46.937 16.842L42.443 23.832C38.449 30.383 29.237 30.657 27.464 30.657L22.746 30.492L21.86 34.93C21.0528 40.8351 21.2217 46.8327 22.36 52.683C23.705 59.5831 26.9303 65.9774 31.68 71.16V68.72H34.62C30.2539 64.0271 27.2935 58.2023 26.076 51.909C24.9428 46.5798 24.8116 41.0863 25.689 35.709L25.911 34.433L27.465 34.489C29.628 34.489 40.612 34.102 45.718 25.889L46.994 23.889L48.214 25.83C53.319 34.099 64.299 34.483 66.522 34.483L68.022 34.427L68.244 35.703C69.1225 41.0802 68.9913 46.574 67.857 51.903C66.6149 58.1878 63.6577 64.0062 59.313 68.714H62.418V71.042C67.1056 65.8541 70.2904 59.4865 71.63 52.624C72.8574 46.8192 72.9876 40.8358 72.014 34.983Z" fill="#4E4B66"/>
<path id="&#208;&#154;&#208;&#190;&#208;&#189;&#209;&#130;&#209;&#131;&#209;&#128; 1817" d="M60.142 41.5322L59.808 39.9172L58.032 39.9732C56.924 39.9732 51.154 39.7512 48.601 35.5352L46.991 33.0352L45.384 35.5972C42.831 39.7572 37.061 39.9782 35.951 39.9782L34.175 39.9172L33.844 41.5272C33.3108 44.7124 33.3862 47.9699 34.066 51.1272C34.6917 54.4357 36.1297 57.5369 38.2506 60.1522C40.3715 62.7674 43.109 64.8147 46.217 66.1102L46.994 66.5002L47.771 66.1662C50.882 64.8772 53.6222 62.8322 55.7431 60.2166C57.864 57.6009 59.2987 54.4974 59.917 51.1872C60.6003 48.0117 60.6756 44.7356 60.139 41.5322M45.993 56.2902L41.112 51.4092L43.612 48.9092L45.993 51.2972L51.264 46.0262L53.764 48.5262L45.993 56.2902Z" fill="#4E4B66"/>
</g>
</svg>
