<svg width="80" height="80" viewBox="0 0 80 80" fill="none" xmlns="http://www.w3.org/2000/svg">
<g clip-path="url(#clip0_328_47824)">
<path d="M61.2 58H58.1V56.4001H56.5V58H53.4V51.7001H56.5V54.8H58.1V51.7001H61.2V58ZM59.6 62.7001H54.9V59.6H59.6V62.7001ZM53.7 48.6H60.9L62.5 50.2001H52.2L53.7 48.6ZM60.4 47H54.1V42.3H60.4V47ZM41.6 36.1C36.4 36.1 32.2 31.9 32.2 26.7C32.2 22.2 35.4 18.4 39.7 17.5C40.4 17.4 41.1 17.3 41.9 17.3C47 17.4 51.1 21.6 51.1 26.7C51 31.9 46.8 36.1 41.6 36.1ZM29.8 40.8H23.5V36.1H29.8V40.8ZM36.1 43.1V44.7001C36.1 45.1 35.7 45.5 35.3 45.5H18C17.6 45.5 17.2 45.2001 17.2 44.7001V43.1C17.2 42.7 17.6 42.3 18 42.3H35.3C35.7 42.3 36.1 42.7 36.1 43.1ZM20.1 58L19.3 56.4001H34L33.2 58H20.1ZM31.4 62.7001H29.8V59.6H31.4V62.7001ZM23.5 62.7001H21.9V59.6H23.5V62.7001ZM18.8 47H34.5V54.8H18.8V47ZM64.3 49.8L62 47.5V40.8H58.1V31.8C58.1 23 50.9 15.8 42 15.8C41.9 15.8 41.9 15.8 41.8 15.8C41.7 15.8 41.7 15.8 41.6 15.8C40.8 15.8 40.1 15.9 39.3 16C31.7 17.3 25.9 23.9 25.9 31.8V34.5H22V40.8H18.1C16.8 40.8 15.7 41.8 15.7 43.1V44.7001C15.7 45.7001 16.4 46.6001 17.3 46.9001V55.8L19.2 59.5H20.5V64.2H25.2V59.5H28.3V64.2H33V59.5H34.3L36.2 55.8V46.9001C37.1 46.6001 37.8 45.7001 37.8 44.7001V43.1C37.8 41.8 36.7 40.8 35.4 40.8H31.5V34.5H27.6V31.8C27.6 27.6 29.4 23.9 32.2 21.2C31.3 22.8 30.7 24.7 30.7 26.7C30.7 32.7001 35.6 37.6 41.7 37.6C47.8 37.6 52.7 32.7001 52.7 26.7C52.7 24.1 51.8 21.7 50.2 19.8C54.1 22.4 56.6 26.8 56.6 31.8V40.8H52.7V47.5L50.3 49.8V51.7001H51.9V59.5H53.5V64.2H61.4V59.5H63V51.7001H64.6V49.8H64.3Z" fill="#4E4B66" stroke="#4E4B66" stroke-width="0.5" stroke-miterlimit="10"/>
<path d="M61.2 58H58.1V56.4001H56.5V58H53.4V51.7001H56.5V54.8H58.1V51.7001H61.2V58ZM59.6 62.7001H54.9V59.6H59.6V62.7001ZM53.7 48.6H60.9L62.5 50.2001H52.2L53.7 48.6ZM60.4 47H54.1V42.3H60.4V47ZM41.6 36.1C36.4 36.1 32.2 31.9 32.2 26.7C32.2 22.2 35.4 18.4 39.7 17.5C40.4 17.4 41.1 17.3 41.9 17.3C47 17.4 51.1 21.6 51.1 26.7C51 31.9 46.8 36.1 41.6 36.1ZM29.8 40.8H23.5V36.1H29.8V40.8ZM36.1 43.1V44.7001C36.1 45.1 35.7 45.5 35.3 45.5H18C17.6 45.5 17.2 45.2001 17.2 44.7001V43.1C17.2 42.7 17.6 42.3 18 42.3H35.3C35.7 42.3 36.1 42.7 36.1 43.1ZM20.1 58L19.3 56.4001H34L33.2 58H20.1ZM31.4 62.7001H29.8V59.6H31.4V62.7001ZM23.5 62.7001H21.9V59.6H23.5V62.7001ZM18.8 47H34.5V54.8H18.8V47ZM64.3 49.8L62 47.5V40.8H58.1V31.8C58.1 23 50.9 15.8 42 15.8C41.9 15.8 41.9 15.8 41.8 15.8C41.7 15.8 41.7 15.8 41.6 15.8C40.8 15.8 40.1 15.9 39.3 16C31.7 17.3 25.9 23.9 25.9 31.8V34.5H22V40.8H18.1C16.8 40.8 15.7 41.8 15.7 43.1V44.7001C15.7 45.7001 16.4 46.6001 17.3 46.9001V55.8L19.2 59.5H20.5V64.2H25.2V59.5H28.3V64.2H33V59.5H34.3L36.2 55.8V46.9001C37.1 46.6001 37.8 45.7001 37.8 44.7001V43.1C37.8 41.8 36.7 40.8 35.4 40.8H31.5V34.5H27.6V31.8C27.6 27.6 29.4 23.9 32.2 21.2C31.3 22.8 30.7 24.7 30.7 26.7C30.7 32.7001 35.6 37.6 41.7 37.6C47.8 37.6 52.7 32.7001 52.7 26.7C52.7 24.1 51.8 21.7 50.2 19.8C54.1 22.4 56.6 26.8 56.6 31.8V40.8H52.7V47.5L50.3 49.8V51.7001H51.9V59.5H53.5V64.2H61.4V59.5H63V51.7001H64.6V49.8H64.3Z" fill="#4E4B66" stroke="#4E4B66" stroke-width="0.5" stroke-miterlimit="10"/>
<circle cx="40" cy="40" r="38.5" stroke="#F56E1E" stroke-width="3"/>
</g>
<defs>
<clipPath id="clip0_328_47824">
<rect width="80" height="80" fill="white"/>
</clipPath>
</defs>
</svg>
