<svg width="16" height="16" viewBox="0 0 16 16" fill="none" xmlns="http://www.w3.org/2000/svg">
<path d="M3.83916 9.28643C3.59441 9.28643 3.38462 9.40703 3.24476 9.56784C3.06993 9.76884 3 10.01 3 10.2513C3 10.5327 3.06993 10.7739 3.24476 10.9347L7.40559 15.7186C7.54545 15.9196 7.75524 16 8 16C8.20979 16 8.41958 15.9196 8.59441 15.7186L12.7552 10.9347C12.8951 10.7739 13 10.5327 13 10.2513C13 10.01 12.8951 9.76884 12.7552 9.56784C12.5804 9.40703 12.3706 9.28643 12.1608 9.28643H3.83916ZM12.7552 5.06533C12.8951 5.26633 13 5.50754 13 5.74874C13 6.03015 12.8951 6.27136 12.7552 6.43216C12.5804 6.63317 12.3706 6.71357 12.1608 6.71357H3.83916C3.59441 6.71357 3.38462 6.63317 3.24476 6.43216C3.06993 6.27136 3 6.03015 3 5.74874C3 5.50754 3.06993 5.26633 3.24476 5.06533L7.40559 0.281407C7.54545 0.120603 7.75524 0 8 0C8.20979 0 8.41958 0.120603 8.59441 0.281407L12.7552 5.06533Z" fill="#6E7191"/>
</svg>
