<svg width="80" height="80" viewBox="0 0 80 80" fill="none" xmlns="http://www.w3.org/2000/svg">
<g clip-path="url(#clip0_328_47831)">
<path d="M21.6 34.4L22.1 31H57.9L58.4 34.4H21.6ZM53.2 37.1V35.8H54.5V37.1C54.5 37.5 54.2 37.8 53.8 37.8C53.5 37.8 53.2 37.5 53.2 37.1ZM25.5 37.1V35.8H26.8V37.1C26.8 37.5 26.5 37.8 26.1 37.8C25.8 37.8 25.5 37.5 25.5 37.1ZM57.2 45.9H22.9V35.8H24.2V37.1C24.2 38.2 25.1 39.1 26.2 39.1C27.3 39.1 28.2 38.2 28.2 37.1V35.8H51.9V37.1C51.9 38.2 52.8 39.1 53.9 39.1C55 39.1 55.9 38.2 55.9 37.1V35.8H57.2V45.9ZM57.2 48.6H22.9V47.3H57.2V48.6ZM52.5 58.7H49.9V49.9H52.5V58.7ZM41.3 58.7H38.7V49.9H41.3V58.7ZM30.1 58.7H27.5V49.9H30.1V58.7ZM26.5 24.3C33.9 24.3 44.8 23.2 50.4 21.4C52.9 23.4 54.4 26.5 54.5 29.7H24.8C24.9 27.8 25.5 25.9 26.5 24.3ZM59.1 30.3C59.1 30 58.8 29.7 58.4 29.7H55.8C55.6 25.9 53.8 22.4 50.9 20.1C50.7 20 50.5 19.9 50.3 20C44.9 21.8 34 22.9 26.5 22.9H26.2C26 22.9 25.8 23 25.7 23.2C24.4 25.1 23.7 27.3 23.6 29.6H21.6C21.3 29.6 21 29.8 20.9 30.2L20.2 35C20.2 35.2 20.2 35.4 20.3 35.5C20.4 35.6 20.6 35.7 20.8 35.7H21.5V49.2C21.5 49.6 21.8 49.9 22.2 49.9H26.2V59.3C26.2 59.7 26.5 60 26.9 60H30.9C31.3 60 31.6 59.7 31.6 59.3V49.9H37.5V59.3C37.5 59.7 37.8 60 38.2 60H42.2C42.6 60 42.9 59.7 42.9 59.3V49.9H48.8V59.3C48.8 59.7 49.1 60 49.5 60H53.5C53.9 60 54.2 59.7 54.2 59.3V49.9H58.2C58.6 49.9 58.9 49.6 58.9 49.2V35.7H59.6C59.8 35.7 60 35.6 60.1 35.5C60.2 35.4 60.3 35.2 60.3 35L59.1 30.3Z" fill="#4E4B66" stroke="#4E4B66" stroke-width="0.6" stroke-miterlimit="10"/>
<path d="M21.6 34.4L22.1 31H57.9L58.4 34.4H21.6ZM53.2 37.1V35.8H54.5V37.1C54.5 37.5 54.2 37.8 53.8 37.8C53.5 37.8 53.2 37.5 53.2 37.1ZM25.5 37.1V35.8H26.8V37.1C26.8 37.5 26.5 37.8 26.1 37.8C25.8 37.8 25.5 37.5 25.5 37.1ZM57.2 45.9H22.9V35.8H24.2V37.1C24.2 38.2 25.1 39.1 26.2 39.1C27.3 39.1 28.2 38.2 28.2 37.1V35.8H51.9V37.1C51.9 38.2 52.8 39.1 53.9 39.1C55 39.1 55.9 38.2 55.9 37.1V35.8H57.2V45.9ZM57.2 48.6H22.9V47.3H57.2V48.6ZM52.5 58.7H49.9V49.9H52.5V58.7ZM41.3 58.7H38.7V49.9H41.3V58.7ZM30.1 58.7H27.5V49.9H30.1V58.7ZM26.5 24.3C33.9 24.3 44.8 23.2 50.4 21.4C52.9 23.4 54.4 26.5 54.5 29.7H24.8C24.9 27.8 25.5 25.9 26.5 24.3ZM59.1 30.3C59.1 30 58.8 29.7 58.4 29.7H55.8C55.6 25.9 53.8 22.4 50.9 20.1C50.7 20 50.5 19.9 50.3 20C44.9 21.8 34 22.9 26.5 22.9H26.2C26 22.9 25.8 23 25.7 23.2C24.4 25.1 23.7 27.3 23.6 29.6H21.6C21.3 29.6 21 29.8 20.9 30.2L20.2 35C20.2 35.2 20.2 35.4 20.3 35.5C20.4 35.6 20.6 35.7 20.8 35.7H21.5V49.2C21.5 49.6 21.8 49.9 22.2 49.9H26.2V59.3C26.2 59.7 26.5 60 26.9 60H30.9C31.3 60 31.6 59.7 31.6 59.3V49.9H37.5V59.3C37.5 59.7 37.8 60 38.2 60H42.2C42.6 60 42.9 59.7 42.9 59.3V49.9H48.8V59.3C48.8 59.7 49.1 60 49.5 60H53.5C53.9 60 54.2 59.7 54.2 59.3V49.9H58.2C58.6 49.9 58.9 49.6 58.9 49.2V35.7H59.6C59.8 35.7 60 35.6 60.1 35.5C60.2 35.4 60.3 35.2 60.3 35L59.1 30.3Z" fill="#4E4B66" stroke="#4E4B66" stroke-width="0.6" stroke-miterlimit="10"/>
<path d="M48 43.3001H32.1C31 43.3001 30.1 42.4001 30.1 41.2001C30.1 40.0001 31 39.1001 32.1 39.1001L48 39.0001C49.1 39.0001 50 39.9001 50 41.1001C50 42.3001 49.1 43.3001 48 43.3001ZM48 37.6001H32.1C30.3 37.6001 28.8 39.2001 28.8 41.1001C28.8 43.0001 30.3 44.6001 32.1 44.6001H48C49.8 44.6001 51.3 43.0001 51.3 41.1001C51.3 39.2001 49.8 37.6001 48 37.6001Z" fill="#4E4B66" stroke="#4E4B66" stroke-width="0.6" stroke-miterlimit="10"/>
<path d="M48 43.3001H32.1C31 43.3001 30.1 42.4001 30.1 41.2001C30.1 40.0001 31 39.1001 32.1 39.1001L48 39.0001C49.1 39.0001 50 39.9001 50 41.1001C50 42.3001 49.1 43.3001 48 43.3001ZM48 37.6001H32.1C30.3 37.6001 28.8 39.2001 28.8 41.1001C28.8 43.0001 30.3 44.6001 32.1 44.6001H48C49.8 44.6001 51.3 43.0001 51.3 41.1001C51.3 39.2001 49.8 37.6001 48 37.6001Z" fill="#4E4B66" stroke="#4E4B66" stroke-width="0.6" stroke-miterlimit="10"/>
<circle cx="40" cy="40" r="38.5" stroke="#F56E1E" stroke-width="3"/>
</g>
<defs>
<clipPath id="clip0_328_47831">
<rect width="80" height="80" fill="white"/>
</clipPath>
</defs>
</svg>
