<svg width="28" height="29" viewBox="0 0 28 29" fill="none" xmlns="http://www.w3.org/2000/svg">
<path d="M22.1665 17.4166H18.6665" stroke="#6E7191" stroke-width="2" stroke-linecap="round" stroke-linejoin="round"/>
<path d="M5.8335 17.4166H8.75016" stroke="#6E7191" stroke-width="2" stroke-linecap="round" stroke-linejoin="round"/>
<path d="M18.5125 4H9.48717C9.08424 4 8.68817 4.10434 8.33754 4.30286C7.9869 4.50138 7.69365 4.78732 7.48634 5.13283L5.31751 8.74833C5.11896 9.07937 4.83802 9.35332 4.50209 9.54347C4.16616 9.73362 3.78669 9.83348 3.40067 9.83333H2.60851C2.22607 9.83333 1.85929 9.98526 1.58886 10.2557C1.31843 10.5261 1.16651 10.8929 1.16651 11.2753V11.3628C1.16588 11.6049 1.23281 11.8424 1.35978 12.0485C1.48674 12.2546 1.66869 12.4212 1.88517 12.5295C2.06961 12.6216 2.22951 12.7563 2.35168 12.9224C2.47385 13.0885 2.55479 13.2812 2.58784 13.4847C2.62088 13.6882 2.60508 13.8967 2.54174 14.0929C2.47839 14.2891 2.36932 14.4674 2.22351 14.6132L1.70317 15.1335C1.3605 15.4761 1.16753 15.9405 1.16651 16.425V19.5085C1.16653 20.0367 1.37636 20.5432 1.74984 20.9167C2.12332 21.2901 2.33316 21.7967 2.33317 22.3248V22.6667C2.33317 23.2855 2.57901 23.879 3.01659 24.3166C3.45418 24.7542 4.04767 25 4.66651 25H6.41651C6.88064 25 7.32576 24.8156 7.65395 24.4874C7.98213 24.1592 8.16651 23.7141 8.16651 23.25C8.16651 22.7859 8.35088 22.3408 8.67907 22.0126C9.00726 21.6844 9.45238 21.5 9.91651 21.5H18.0832C18.5473 21.5 18.9924 21.6844 19.3206 22.0126C19.6488 22.3408 19.8332 22.7859 19.8332 23.25C19.8332 23.7141 20.0175 24.1592 20.3457 24.4874C20.6739 24.8156 21.119 25 21.5832 25H23.3332C23.952 25 24.5455 24.7542 24.9831 24.3166C25.4207 23.879 25.6665 23.2855 25.6665 22.6667V22.3248C25.6665 21.7967 25.8764 21.2901 26.2498 20.9167C26.6233 20.5432 26.8332 20.0367 26.8332 19.5085V16.425C26.8331 15.9392 26.64 15.4734 26.2965 15.13L25.7762 14.6097C25.6304 14.4639 25.5213 14.2856 25.4579 14.0894C25.3946 13.8932 25.3788 13.6847 25.4118 13.4812C25.4449 13.2777 25.5258 13.085 25.648 12.9189C25.7702 12.7528 25.9301 12.6181 26.1145 12.526C26.331 12.4177 26.5129 12.2511 26.6399 12.045C26.7669 11.8389 26.8338 11.6014 26.8332 11.3593V11.2753C26.8332 10.8929 26.6812 10.5261 26.4108 10.2557C26.1404 9.98526 25.7736 9.83333 25.3912 9.83333H24.599C24.2132 9.83317 23.834 9.73316 23.4983 9.54303C23.1626 9.3529 22.8819 9.07912 22.6833 8.74833L20.5145 5.13167C20.307 4.7862 20.0135 4.50039 19.6626 4.30206C19.3118 4.10374 18.9155 3.99967 18.5125 4V4Z" stroke="#6E7191" stroke-width="2"/>
</svg>
