<svg width="80" height="80" viewBox="0 0 80 80" fill="none" xmlns="http://www.w3.org/2000/svg">
<g clip-path="url(#clip0_328_47838)">
<path d="M27.1 33.1C26.5 33.1 25.9 32.6 25.9 32C25.9 31.4 26.4 30.9 27.1 30.9H30.6C31.2 30.9 31.7999 31.4 31.7999 32C31.7999 32.6 31.3 33.1 30.6 33.1H27.1ZM28.2999 28.5C27.5999 28.5 27.1 28 27.1 27.4C27.1 26.8 27.5999 26.3 28.2999 26.3H30.6C31.2 26.3 31.7999 26.8 31.7999 27.4C31.7999 28 31.3 28.5 30.6 28.5H28.2999ZM27.1 23.9C26.5 23.9 25.9 23.4 25.9 22.8C25.9 22.2 26.4 21.6 27.1 21.6H30.6C31.2 21.6 31.7999 22.1 31.7999 22.8C31.7999 23.4 31.3 23.9 30.6 23.9H27.1ZM40 56.1C41.2999 56.1 42.2999 55.1 42.2999 53.8C42.2999 52.5 41.2 51.5 40 51.5C38.7 51.5 37.7 52.5 37.7 53.8C37.7 55.1 38.7 56.1 40 56.1ZM38.7999 49.3V42.3C38.7999 41.7 39.2999 41.2 40 41.2C40.6 41.2 41.2 41.7 41.2 42.3V49.3C43.2 49.8 44.7 51.6 44.7 53.8C44.7 56.3 42.6 58.4 40 58.4C37.4 58.4 35.2999 56.3 35.2999 53.8C35.2999 51.7 36.7999 49.9 38.7999 49.3ZM36.5 35.4C36.5 36 35.9999 36.5 35.2999 36.5C34.5999 36.5 34.0999 36 34.0999 35.4V22.8C34.0999 19.6 36.7 17.1 40 17.1C43.2 17.1 45.9 19.7 45.9 22.8V26.2C45.9 26.8 45.4 27.3 44.7 27.3C44 27.3 43.5 26.8 43.5 26.2V22.8C43.5 20.9 41.9 19.3 40 19.3C38.1 19.3 36.5 20.8 36.5 22.8V35.4ZM49.4 53.8C49.4 58.9 45.2 63 40 63C34.8 63 30.6 58.9 30.6 53.8C30.6 50.8 32.0999 48 34.5999 46.3C35.0999 45.9 35.9 46.1 36.2 46.6C36.6 47.1 36.4 47.8 35.9 48.2C34 49.5 32.9 51.6 32.9 53.9C32.9 57.7 36.1 60.8 39.9 60.8C43.8 60.8 46.9 57.7 46.9 53.9C46.9 51.6 45.8 49.5 43.9 48.2C43.6 48 43.4 47.6 43.4 47.3V37.8C43.4 37.2 43.8999 36.6 44.5999 36.6C45.1999 36.6 45.7999 37.1 45.7999 37.8V46.7C48.0999 48.3 49.4 51 49.4 53.8ZM30.2999 47.7C29.9999 47.9 29.7 48 29.4 48H22.4C21.8 48 21.2 47.5 21.2 46.9C21.2 46.3 21.7 45.8 22.4 45.8H29L49.7999 25.4C50 25.2 50.2999 25.1 50.5999 25.1H57.5999C58.1999 25.1 58.7999 25.6 58.7999 26.2C58.7999 26.8 58.2999 27.3 57.5999 27.3H51L30.2999 47.7Z" fill="#4E4B66"/>
<circle cx="40" cy="40" r="38.5" stroke="#F56E1E" stroke-width="3"/>
</g>
<defs>
<clipPath id="clip0_328_47838">
<rect width="80" height="80" fill="white"/>
</clipPath>
</defs>
</svg>
