<svg width="94" height="94" viewBox="0 0 94 94" fill="none" xmlns="http://www.w3.org/2000/svg">
<g id="Group 171">
<path id="&#208;&#154;&#208;&#190;&#208;&#189;&#209;&#130;&#209;&#131;&#209;&#128; 1566" d="M47 92C55.9002 92 64.6004 89.3608 72.0007 84.4162C79.4009 79.4715 85.1686 72.4435 88.5746 64.2208C91.9805 55.9981 92.8717 46.9501 91.1353 38.221C89.399 29.4918 85.1132 21.4736 78.8198 15.1802C72.5264 8.88685 64.5082 4.60102 55.7791 2.86468C47.0499 1.12835 38.0019 2.0195 29.7792 5.42544C21.5566 8.83138 14.5285 14.5991 9.58387 21.9994C4.6392 29.3996 2 38.0999 2 47C2 58.9348 6.74106 70.3807 15.1802 78.8198C23.6193 87.259 35.0653 92 47 92V92Z" stroke="#F56E1E" stroke-width="3"/>
<path id="&#208;&#154;&#208;&#190;&#208;&#189;&#209;&#130;&#209;&#131;&#209;&#128; 1818" d="M71.4969 37.1819C71.0717 37.1245 70.643 37.0958 70.2139 37.0959H63.4829C62.4711 37.0961 61.4809 37.3893 60.6319 37.9399V32.4829C60.6306 31.0717 60.0695 29.7187 59.0718 28.7208C58.074 27.7229 56.7211 27.1615 55.3099 27.1599H27.8359C26.3393 27.1615 24.9044 27.7567 23.8461 28.815C22.7878 29.8733 22.1925 31.3083 22.1909 32.8049V34.6129H19.6759C19.514 34.6083 19.3529 34.6361 19.2019 34.6949C19.051 34.7536 18.9134 34.842 18.7972 34.9549C18.6811 35.0678 18.5887 35.2028 18.5257 35.352C18.4626 35.5011 18.4301 35.6615 18.4301 35.8234C18.4301 35.9854 18.4626 36.1457 18.5257 36.2949C18.5887 36.444 18.6811 36.5791 18.7972 36.6919C18.9134 36.8048 19.051 36.8932 19.2019 36.952C19.3529 37.0107 19.514 37.0386 19.6759 37.0339H22.1919V39.5789H14.7089C14.547 39.5742 14.3859 39.6021 14.2349 39.6609C14.084 39.7196 13.9464 39.808 13.8302 39.9209C13.7141 40.0337 13.6217 40.1688 13.5587 40.3179C13.4956 40.4671 13.4631 40.6275 13.4631 40.7894C13.4631 40.9514 13.4956 41.1117 13.5587 41.2609C13.6217 41.41 13.7141 41.5451 13.8302 41.6579C13.9464 41.7708 14.084 41.8592 14.2349 41.918C14.3859 41.9767 14.547 42.0046 14.7089 41.9999H22.1919V44.5459H18.4349C18.273 44.5413 18.1119 44.5691 17.9609 44.6279C17.81 44.6866 17.6724 44.775 17.5562 44.8879C17.4401 45.0008 17.3477 45.1358 17.2847 45.285C17.2216 45.4341 17.1891 45.5944 17.1891 45.7564C17.1891 45.9184 17.2216 46.0787 17.2847 46.2279C17.3477 46.377 17.4401 46.5121 17.5562 46.6249C17.6724 46.7378 17.81 46.8262 17.9609 46.8849C18.1119 46.9437 18.273 46.9716 18.4349 46.9669H22.1919V49.5119H14.7089C14.547 49.5073 14.3859 49.5351 14.2349 49.5939C14.084 49.6526 13.9464 49.741 13.8302 49.8539C13.7141 49.9667 13.6217 50.1018 13.5587 50.251C13.4956 50.4001 13.4631 50.5605 13.4631 50.7224C13.4631 50.8844 13.4956 51.0447 13.5587 51.1939C13.6217 51.343 13.7141 51.4781 13.8302 51.5909C13.9464 51.7038 14.084 51.7922 14.2349 51.851C14.3859 51.9097 14.547 51.9376 14.7089 51.9329H22.1919V54.1999C22.1938 55.9041 22.8716 57.5381 24.0767 58.7431C25.2818 59.9482 26.9157 60.6261 28.6199 60.6279H29.6459C29.6459 60.6389 29.6459 60.6479 29.6459 60.6579C29.6459 62.2967 30.2969 63.8683 31.4557 65.0271C32.6145 66.1859 34.1862 66.8369 35.8249 66.8369C37.4637 66.8369 39.0354 66.1859 40.1941 65.0271C41.3529 63.8683 42.0039 62.2967 42.0039 60.6579C42.0039 60.6469 42.0039 60.6379 42.0039 60.6279H63.1839C63.1839 60.6389 63.1839 60.6479 63.1839 60.6579C63.1839 62.2967 63.8349 63.8683 64.9937 65.0271C66.1525 66.1859 67.7242 66.8369 69.3629 66.8369C71.0017 66.8369 72.5734 66.1859 73.7321 65.0271C74.8909 63.8683 75.5419 62.2967 75.5419 60.6579C75.5419 60.6469 75.5419 60.6379 75.5419 60.6279H76.0339C77.2212 60.6266 78.3594 60.1544 79.1989 59.3149C80.0384 58.4754 80.5106 57.3371 80.5119 56.1499V47.3889C80.5122 44.8831 79.597 42.4636 77.9385 40.5852C76.28 38.7068 73.9924 37.499 71.5059 37.1889L71.4969 37.1819ZM71.1859 39.5819C73.0898 39.816 74.8423 40.7383 76.1133 42.175C77.3842 43.6118 78.0859 45.4637 78.0859 47.3819V48.2709H69.8919C69.4128 48.2706 68.9534 48.0804 68.6145 47.7418C68.2755 47.4032 68.0847 46.944 68.0839 46.4649V39.5139H70.2139C70.5394 39.5135 70.8646 39.5359 71.1869 39.5809L71.1859 39.5819ZM35.8229 64.4179C35.0799 64.4179 34.3535 64.1976 33.7356 63.7847C33.1178 63.3719 32.6363 62.7851 32.3519 62.0986C32.0676 61.4121 31.9932 60.6567 32.1381 59.9279C32.2831 59.1992 32.6409 58.5297 33.1663 58.0043C33.6918 57.4789 34.3612 57.1211 35.09 56.9761C35.8188 56.8311 36.5742 56.9055 37.2607 57.1899C37.9472 57.4743 38.5339 57.9558 38.9468 58.5736C39.3596 59.1915 39.5799 59.9178 39.5799 60.6609C39.5797 61.6575 39.1839 62.6133 38.4794 63.3183C37.775 64.0233 36.8195 64.4199 35.8229 64.4209V64.4179ZM35.8229 54.4819C34.6179 54.4832 33.4394 54.8365 32.4325 55.4985C31.4255 56.1604 30.6339 57.1021 30.1549 58.2079H28.6199C27.5579 58.2066 26.5397 57.7841 25.7887 57.0331C25.0377 56.2821 24.6153 55.264 24.6139 54.2019V51.9349H28.3709C28.686 51.9258 28.985 51.7944 29.2047 51.5683C29.4243 51.3423 29.5471 51.0396 29.5471 50.7244C29.5471 50.4093 29.4243 50.1065 29.2047 49.8805C28.985 49.6545 28.686 49.523 28.3709 49.5139H24.6139V46.9689H30.8549C31.1699 46.9598 31.469 46.8284 31.6887 46.6023C31.9083 46.3763 32.0311 46.0736 32.0311 45.7584C32.0311 45.4433 31.9083 45.1405 31.6887 44.9145C31.469 44.6885 31.1699 44.557 30.8549 44.5479H24.6139V42.0019H28.3709C28.686 41.9929 28.985 41.8614 29.2047 41.6353C29.4243 41.4093 29.5471 41.1066 29.5471 40.7914C29.5471 40.4763 29.4243 40.1735 29.2047 39.9475C28.985 39.7215 28.686 39.59 28.3709 39.5809H24.6139V37.0359H30.8549C31.1699 37.0268 31.469 36.8954 31.6887 36.6693C31.9083 36.4433 32.0311 36.1406 32.0311 35.8254C32.0311 35.5103 31.9083 35.2075 31.6887 34.9815C31.469 34.7555 31.1699 34.624 30.8549 34.6149H24.6139V32.8069C24.615 31.9524 24.9549 31.1333 25.5591 30.5291C26.1633 29.9249 26.9825 29.585 27.8369 29.5839H55.3099C55.6908 29.5839 56.0679 29.6589 56.4197 29.8047C56.7716 29.9504 57.0913 30.164 57.3605 30.4333C57.6298 30.7026 57.8434 31.0223 57.9892 31.3741C58.1349 31.726 58.2099 32.1031 58.2099 32.4839V58.2129H41.4919C41.013 57.107 40.2214 56.1652 39.2145 55.503C38.2075 54.8409 37.0291 54.4874 35.8239 54.4859L35.8229 54.4819ZM69.3569 64.4179C68.6139 64.4179 67.8875 64.1976 67.2696 63.7847C66.6518 63.3719 66.1703 62.7851 65.8859 62.0986C65.6016 61.4121 65.5272 60.6567 65.6721 59.9279C65.8171 59.1992 66.1749 58.5297 66.7003 58.0043C67.2257 57.4789 67.8952 57.1211 68.624 56.9761C69.3528 56.8311 70.1082 56.9055 70.7947 57.1899C71.4812 57.4743 72.0679 57.9558 72.4808 58.5736C72.8936 59.1915 73.1139 59.9178 73.1139 60.6609C73.1137 61.6577 72.7177 62.6136 72.0131 63.3186C71.3084 64.0237 70.3527 64.4201 69.3559 64.4209L69.3569 64.4179ZM76.0269 58.2079H75.0269C74.549 57.1014 73.7577 56.1589 72.7505 55.4967C71.7433 54.8346 70.5643 54.4818 69.3589 54.4818C68.1536 54.4818 66.9746 54.8346 65.9674 55.4967C64.9602 56.1589 64.1688 57.1014 63.6909 58.2079H60.6339V42.3699C60.6347 41.614 60.9353 40.8893 61.4698 40.3548C62.0043 39.8203 62.729 39.5197 63.4849 39.5189H65.6649V46.4679C65.666 47.5894 66.112 48.6646 66.9051 49.4574C67.6982 50.2503 68.7735 50.6961 69.8949 50.6969H78.0839V56.1559C78.0831 56.7007 77.8664 57.2229 77.4812 57.6081C77.0959 57.9934 76.5737 58.2101 76.0289 58.2109L76.0269 58.2079Z" fill="#4E4B66" stroke="#4E4B66"/>
<path id="&#208;&#154;&#208;&#190;&#208;&#189;&#209;&#130;&#209;&#131;&#209;&#128; 1819" d="M47.196 35.5799C47.0197 35.4311 46.8045 35.3358 46.5758 35.3051C46.3471 35.2745 46.1143 35.3099 45.905 35.4071C45.6957 35.5043 45.5186 35.6592 45.3944 35.8537C45.2702 36.0482 45.2042 36.2742 45.2041 36.5049V38.5229H35.6981C35.3769 38.5229 35.0689 38.6505 34.8418 38.8776C34.6147 39.1047 34.4871 39.4128 34.4871 39.7339V46.1929C34.4871 46.5141 34.6147 46.8221 34.8418 47.0492C35.0689 47.2763 35.3769 47.4039 35.6981 47.4039H45.2041V49.4219C45.204 49.6528 45.2698 49.8789 45.394 50.0735C45.5181 50.2681 45.6952 50.4233 45.9046 50.5206C46.1139 50.6179 46.3467 50.6533 46.5755 50.6228C46.8043 50.5922 47.0196 50.4968 47.196 50.3479L54.851 43.8889C54.9857 43.7753 55.094 43.6337 55.1683 43.474C55.2425 43.3142 55.281 43.1401 55.281 42.9639C55.281 42.7877 55.2425 42.6137 55.1683 42.4539C55.094 42.2941 54.9857 42.1525 54.851 42.0389L47.196 35.5799ZM47.6261 46.8159V46.1929C47.6261 46.0339 47.5947 45.8764 47.5339 45.7295C47.473 45.5826 47.3838 45.4491 47.2714 45.3366C47.1589 45.2242 47.0254 45.135 46.8785 45.0741C46.7316 45.0133 46.5741 44.9819 46.4151 44.9819H36.9091V40.9449H46.4151C46.5741 40.9449 46.7316 40.9136 46.8785 40.8528C47.0254 40.7919 47.1589 40.7027 47.2714 40.5902C47.3838 40.4778 47.473 40.3443 47.5339 40.1974C47.5947 40.0504 47.6261 39.893 47.6261 39.7339V39.1109L52.192 42.9629L47.6261 46.8159Z" fill="#4E4B66" stroke="#4E4B66" stroke-width="1.25"/>
</g>
</svg>
