<svg width="16" height="16" viewBox="0 0 16 16" fill="none" xmlns="http://www.w3.org/2000/svg">
<path d="M2.75707 12.5822L2.30518 3.54541H13.6904L13.2473 12.5822C13.2146 13.2343 12.9325 13.8489 12.4593 14.2989C11.9862 14.749 11.3582 14.9999 10.7052 15H5.29923C4.64621 14.9999 4.01821 14.749 3.54506 14.2989C3.07191 13.8489 2.7898 13.2343 2.75707 12.5822V12.5822Z" stroke="#6E7191" stroke-width="2"/>
<path d="M5.45435 3.54537H10.5449V2.27224C10.5449 1.93482 10.4108 1.61122 10.1722 1.37263C9.93355 1.13404 9.60991 1 9.27245 1H6.72675C6.38929 1 6.06565 1.13404 5.82702 1.37263C5.5884 1.61122 5.45435 1.93482 5.45435 2.27224V3.54537Z" stroke="#6E7191" stroke-width="2"/>
<path d="M1 3.54541H15" stroke="#6E7191" stroke-width="2" stroke-linecap="round"/>
<path d="M9.90967 7.36304V10.5445" stroke="#6E7191" stroke-width="2" stroke-linecap="round"/>
<path d="M6.09045 7.36304V10.5445" stroke="#6E7191" stroke-width="2" stroke-linecap="round"/>
</svg>
