<svg width="16" height="16" viewBox="0 0 16 16" fill="none" xmlns="http://www.w3.org/2000/svg">
<path d="M13.4064 10.7203C11.8083 9.77549 9.93673 9.23147 8.0004 9.14893C6.06407 9.23147 4.19247 9.77549 2.59444 10.7203C2.18704 10.9845 1.85285 11.3233 1.616 11.7121C1.37915 12.101 1.24554 12.5302 1.22482 12.9689L1 15H15L14.776 12.9689C14.7552 12.5302 14.6216 12.101 14.3847 11.7121C14.1479 11.3233 13.8137 10.9845 13.4064 10.7203V10.7203Z" stroke="#6E7191" stroke-width="2" stroke-linecap="round" stroke-linejoin="round"/>
<path d="M8 7C8.59334 7 9.17336 6.82405 9.66671 6.49441C10.1601 6.16476 10.5446 5.69623 10.7716 5.14805C10.9987 4.59987 11.0581 3.99667 10.9424 3.41473C10.8266 2.83279 10.5409 2.29824 10.1213 1.87868C9.70176 1.45912 9.16721 1.1734 8.58527 1.05765C8.00333 0.94189 7.40013 1.0013 6.85195 1.22836C6.30377 1.45543 5.83523 1.83994 5.50559 2.33329C5.17595 2.82664 5 3.40666 5 4C5 4.79565 5.31607 5.55871 5.87868 6.12132C6.44129 6.68393 7.20435 7 8 7V7Z" stroke="#6E7191" stroke-width="2" stroke-linecap="round" stroke-linejoin="round"/>
</svg>
