<svg width="16" height="16" viewBox="0 0 16 16" fill="none" xmlns="http://www.w3.org/2000/svg">
<path d="M1.12467 1.12467C0 2.24933 0 4.05968 0 7.68V8.32C0 11.9403 0 13.7507 1.12467 14.8753C2.24933 16 4.05968 16 7.68 16H8.32C11.9403 16 13.7507 16 14.8753 14.8753C16 13.7507 16 11.9403 16 8.32V7.68C16 4.05968 16 2.24933 14.8753 1.12467C13.7507 0 11.9403 0 8.32 0H7.68C4.05968 0 2.24933 0 1.12467 1.12467ZM2.7 4.86668H4.52668C4.58668 7.92 5.93332 9.21332 7 9.48V4.86668H8.72V7.5C9.77332 7.38668 10.88 6.18668 11.2533 4.86668H12.9733C12.8326 5.55125 12.5521 6.19939 12.1495 6.77068C11.7469 7.34193 11.2308 7.82396 10.6333 8.18668C11.3004 8.51782 11.8895 8.98679 12.3619 9.56254C12.8342 10.1383 13.1789 10.8078 13.3733 11.5267H11.48C11.3055 10.9022 10.9505 10.3432 10.4595 9.91979C9.96846 9.49639 9.36332 9.22743 8.72 9.14668V11.5267H8.51332C4.86668 11.5267 2.78667 9.02668 2.7 4.86668Z" fill="#6E7191"/>
</svg>
