<svg width="80" height="80" viewBox="0 0 80 80" fill="none" xmlns="http://www.w3.org/2000/svg">
<g clip-path="url(#clip0_328_47841)">
<circle cx="40" cy="40" r="38.5" stroke="#F56E1E" stroke-width="3"/>
<path d="M47.2 48.4999C45.1 46.9999 42.7 46.1999 40 46.1999C39 46.1999 37.9 46.2999 36.9 46.5999L29.2 33.5999C28.9 32.9999 28.1 32.7999 27.5 33.0999C26.9 33.3999 26.7 34.1999 27 34.7999L34.5 47.3999C33.8 47.6999 33.3 48.0999 32.7 48.4999L19.4 34.9999C25.1 29.8999 32.4 27.0999 40 27.0999C47.7 27.0999 54.9 29.8999 60.6 34.9999L47.2 48.4999ZM64.6 33.5999C58.1 27.0999 49.3 23.3999 40 23.3999C30.7 23.3999 22 26.9999 15.4 33.5999C14.7 34.2999 14.7 35.4999 15.4 36.1999L31.4 52.2999C31.7 52.5999 32.2 52.7999 32.7 52.7999C33.2 52.7999 33.7 52.5999 34 52.2999C34.7 51.5999 35.6 50.9999 36.5 50.5999L37.8 52.7999C37.6 53.1999 37.5 53.5999 37.5 53.9999C37.5 55.3999 38.6 56.4999 40 56.4999C41.4 56.4999 42.5 55.3999 42.5 53.9999C42.5 52.5999 41.4 51.4999 40 51.4999H39.9L38.9 49.8999C39.2 49.7999 39.6 49.7999 39.9 49.7999C42.2 49.7999 44.3 50.6999 45.9 52.2999C46.6 52.9999 47.8 52.9999 48.5 52.2999L64.5 36.2999C65.3 35.5999 65.3 34.3999 64.6 33.5999Z" fill="#4E4B66"/>
</g>
<defs>
<clipPath id="clip0_328_47841">
<rect width="80" height="80" fill="white"/>
</clipPath>
</defs>
</svg>
