<svg width="16" height="16" viewBox="0 0 16 16" fill="none" xmlns="http://www.w3.org/2000/svg">
<path d="M9.25822 7.98122L13.1268 4.15023L13.9155 3.3615C14.0282 3.24883 14.0282 3.06103 13.9155 2.9108L13.0892 2.08451C12.939 1.97183 12.7512 1.97183 12.6385 2.08451L8.01878 6.74178L3.3615 2.08451C3.24883 1.97183 3.06103 1.97183 2.9108 2.08451L2.08451 2.9108C1.97183 3.06103 1.97183 3.24883 2.08451 3.3615L6.74178 7.98122L2.08451 12.6385C1.97183 12.7512 1.97183 12.939 2.08451 13.0892L2.9108 13.9155C3.06103 14.0282 3.24883 14.0282 3.3615 13.9155L8.01878 9.25822L11.8498 13.1268L12.6385 13.9155C12.7512 14.0282 12.939 14.0282 13.0892 13.9155L13.9155 13.0892C14.0282 12.939 14.0282 12.7512 13.9155 12.6385L9.25822 7.98122Z" fill="#6E7191"/>
</svg>
